<svg width="1128" height="664" viewBox="0 0 1128 664" fill="none" xmlns="http://www.w3.org/2000/svg">
<g clip-path="url(#clip0_6664_19961)">
<rect width="1128" height="664" fill="#DFEEFF"/>
<path d="M-103.35 -26H-108.59L-68.2023 -2.65024H-104.436L-117 -24.4402V-19.1924L-106.706 -1.33829L-117 16.5161V21.7639L-104.436 -0.026351H-68.2369L-117 28.1654V31.1951L-103.91 23.6271L-66.9353 2.25099L-85.0265 33.6287H-117V36.2526H-85.0265L-66.9439 67.6149L-117 38.676V41.7057L-68.2023 69.9176H-104.436L-117 48.1273V53.3751L-106.706 71.2295L-117 89.0836V94.3313L-104.436 72.5415H-68.2369L-117 100.733V103.763L-85.9915 85.8358L-66.9353 74.8187L-85.0265 106.196H-117V108.82H-85.0265L-66.9439 140.183L-117 111.243V114.273L-68.2023 142.485H-104.436L-117 120.695V125.943L-106.706 143.797L-117 161.651V166.899L-104.436 145.109H-68.2369L-100.948 164.02L-117 173.301V176.33L-85.8354 158.313L-66.9353 147.386L-85.0265 178.764H-117V181.388H-85.0265L-66.9439 212.75L-117 183.811V186.841L-68.2023 215.053H-104.436L-117 193.263V198.51L-106.706 216.364L-117 234.219V239.467L-104.436 217.676H-68.2369L-110.784 242.275L-117 245.868V248.898L-66.9353 219.954L-85.0265 251.331H-117V253.955H-85.0265L-66.9439 285.318L-117 256.379V259.408L-68.2023 287.62H-104.436L-117 265.83V271.078L-106.706 288.932L-117 306.786V312.034L-104.436 290.244H-68.2369L-110.784 314.843L-117 318.436V321.466L-66.9353 292.522L-85.0265 323.899H-117V326.523H-85.0265L-66.9439 357.886L-117 328.946V331.976L-68.2023 360.188H-104.436L-117 338.398V343.645L-106.706 361.5L-117 379.354V384.602L-104.436 362.812H-68.2369L-117 391.003V394.033L-104.462 386.785L-66.9353 365.089L-85.0265 396.466H-117V399.09H-85.0265L-66.9439 430.453L-117 401.514V404.544L-68.2023 432.755H-104.436L-117 410.965V416.213L-106.706 434.067L-117 451.921V457.169L-104.436 435.379H-68.2369L-117 463.571V466.601L-104.462 459.352L-66.9353 437.657L-85.0265 469.034H-117V471.658H-85.0265L-66.9439 503.02L-117 474.081V477.111L-68.2023 505.323H-104.436L-117 483.533V488.781L-106.706 506.635L-117 524.489V529.737L-104.436 507.947H-68.2369L-100.948 526.858L-117 536.138V539.168L-85.8354 521.151L-66.9353 510.224L-85.0265 541.602H-117V544.226H-85.0265L-66.9439 575.588L-117 546.649V549.679L-68.2023 577.891H-104.436L-117 556.1V561.348L-106.706 579.203L-117 597.057V602.304L-104.436 580.514H-68.2369L-110.784 605.113L-117 608.706V611.736L-66.9353 582.792L-85.0265 614.169H-117V616.793H-85.0265L-66.9439 648.156L-117 619.216V622.246L-68.2023 650.458H-104.436L-117 628.668V633.916L-106.706 651.77L-117 669.624V674.872L-104.436 653.082H-68.2369L-117 681.274V684.303L-104.462 677.055L-66.9353 655.359L-85.0265 686.737H-117V689.361H-85.0265L-73.1266 710H-70.101L-82.7574 688.049L-64.6403 656.626V710H-62.02V656.686L-43.9371 688.049L-56.5935 710H-53.5679L-41.668 689.361H-5.46814L-41.1678 710H-35.9271L-4.15798 691.633L-14.7477 710H-11.7221L-1.8802 692.93V710H0.757343V692.99L10.5647 710H13.5906L2.98364 691.603L34.8043 710H40.0449L4.34529 689.361H40.5106L52.4105 710H55.4364L42.78 688.049L60.8971 656.626V710H63.5174V656.686L81.6 688.049L68.9436 710H71.9695L83.8691 689.361H120.069L84.3694 710H89.61L121.379 691.633L110.789 710H113.815L123.657 692.93V710H126.295V692.99L136.102 710H139.128L128.521 691.603L160.342 710H165.582L129.883 689.361H166.048L177.948 710H180.974L168.317 688.049L186.434 656.626V710H189.055V656.686L207.137 688.049L194.481 710H197.507L209.406 689.361H245.606L209.906 710H215.147L246.916 691.633L236.326 710H239.352L249.194 692.93V710H251.832V692.99L261.639 710H264.665L254.058 691.603L285.879 710H291.119L255.42 689.361H291.585L303.485 710H306.511L293.854 688.049L311.971 656.626V710H314.592V656.686L332.674 688.049L320.018 710H323.044L334.944 689.361H371.144L335.444 710H340.684L372.453 691.633L361.864 710H364.889L374.731 692.93V710H377.369V692.99L387.176 710H390.202L379.595 691.603L411.416 710H416.657L380.957 689.361H417.122L429.022 710H432.048L419.392 688.049L437.509 656.626V710H440.129V656.686L458.212 688.049L445.555 710H448.581L460.481 689.361H496.681L460.981 710H466.222L497.991 691.633L487.401 710H490.427L500.269 692.93V710H502.906V692.99L512.714 710H515.739L505.132 691.603L536.953 710H542.194L506.494 689.361H542.659L554.559 710H557.585L544.929 688.049L563.046 656.626V710H565.666V656.686L583.749 688.049L571.093 710H574.118L586.018 689.361H618V686.737H586.018L567.91 655.33L607.911 678.456L618 684.288V681.259L569.263 653.082H605.428L618 674.887V669.639L607.697 651.77L618 633.901V628.653L605.428 650.458H569.228L618 622.262V619.231L567.918 648.186L586.018 616.793H618V614.169H586.018L567.91 582.762L618 611.721V608.691L609.769 603.932L569.263 580.514H605.428L618 602.319V597.072L607.697 579.203L618 561.333V556.086L605.428 577.891H569.228L618 549.694V546.664L567.918 575.618L586.018 544.226H618V541.602H586.018L567.91 510.194L595.081 525.903L618 539.153V536.124L596.391 523.631L569.263 507.947H605.428L618 529.752V524.504L607.697 506.635L618 488.766V483.518L605.428 505.323H569.228L618 477.126V474.096L567.918 503.051L586.018 471.658H618V469.034H586.018L567.91 437.627L607.911 460.753L618 466.586V463.556L569.263 435.379H605.428L618 457.184V451.936L607.697 434.067L618 416.198V410.95L605.428 432.755H569.228L618 404.559V401.529L567.918 430.483L586.018 399.09H618V396.466H586.018L567.91 365.059L607.911 388.186L618 394.018V390.988L569.263 362.812H605.428L618 384.617V379.369L607.697 361.5L618 343.631V338.383L605.428 360.188H569.228L618 331.991V328.961L567.918 357.915L586.018 326.523H618V323.899H586.018L567.91 292.491L618 321.451V318.421L609.769 313.662L569.263 290.244H605.428L618 312.049V306.801L607.697 288.932L618 271.063V265.815L605.428 287.62H569.228L618 259.423V256.394L567.918 285.348L586.018 253.955H618V251.331H586.018L567.91 219.924L618 248.883V245.853L609.769 241.094L569.263 217.676H605.428L618 239.481V234.234L607.697 216.364L618 198.495V193.248L605.428 215.053H569.228L618 186.856V183.826L567.918 212.78L586.018 181.388H618V178.764H586.018L567.91 147.356L595.081 163.065L618 176.315V173.286L596.391 160.793L569.263 145.109H605.428L618 166.914V161.666L607.697 143.797L618 125.928V120.68L605.428 142.485H569.228L618 114.288V111.258L567.918 140.213L586.018 108.82H618V106.196H586.018L567.909 74.7886L595.081 90.4974L618 103.748V100.718L569.263 72.5415H605.428L618 94.3464V89.0987L607.697 71.2295L618 53.3603V48.1126L605.428 69.9176H569.228L618 41.7207V38.6911L567.918 67.645L586.018 36.2526H618V33.6287H586.018L567.909 2.2212L595.081 17.9299L618 31.1803V28.1503L596.391 15.6574L569.263 -0.026351H605.428L618 21.7786V16.5308L607.697 -1.33829L618 -19.2074V-24.4552L605.428 -2.65024H569.228L609.617 -26H604.376L567.918 -4.92245L580.071 -26H577.045L565.666 -6.26451V-26H563.046V-6.20462L551.632 -26H548.607L560.742 -4.95257L524.336 -26H519.095L559.484 -2.65024H523.249L509.787 -26H506.761L520.98 -1.33829L502.906 30.0097V-26H500.269V30.0692L482.16 -1.33829L496.379 -26H493.354L479.891 -2.65024H443.691L484.079 -26H478.839L442.381 -4.92245L454.533 -26H451.508L440.129 -6.26451V-26H437.509V-6.20462L426.095 -26H423.069L435.205 -4.95257L398.799 -26H393.558L433.946 -2.65024H397.712L384.25 -26H381.224L395.443 -1.33829L377.369 30.0093V-26H374.731V30.0692L356.623 -1.33829L370.842 -26H367.816L354.354 -2.65024H318.154L358.542 -26H353.302L316.844 -4.92245L328.996 -26H325.97L314.592 -6.26418V-26H311.971V-6.20462L300.558 -26H297.532L309.668 -4.95257L273.262 -26H268.021L308.409 -2.65024H272.175L258.712 -26H255.687L269.906 -1.33829L251.832 30.0093V-26H249.194V30.0692L231.086 -1.33829L245.305 -26H242.279L228.816 -2.65024H192.617L233.005 -26H227.764L191.307 -4.92245L203.459 -26H200.433L189.055 -6.26451V-26H186.434V-6.20462L175.021 -26H171.995L184.131 -4.95257L147.725 -26H142.484L182.872 -2.65024H146.638L133.175 -26H130.149L144.369 -1.33829L126.295 30.0093V-26H123.657V30.0692L105.548 -1.33829L119.768 -26H116.742L103.279 -2.65024H67.0794L107.468 -26H102.227L65.7693 -4.92245L77.9219 -26H74.8962L63.5174 -6.26451V-26H60.8971V-6.20462L49.4837 -26H46.4578L58.5935 -4.95257L22.1872 -26H16.9466L57.3348 -2.65024H21.1007L7.63791 -26H4.61204L18.8313 -1.33829L0.757343 30.0093V-26H-1.8802V30.0692L-19.9886 -1.33829L-5.76948 -26H-8.79536L-22.2581 -2.65024H-58.4576L-18.0695 -26H-23.3101L-59.7678 -4.92245L-47.6153 -26H-50.6408L-62.02 -6.26451V-26H-64.6403V-6.20462L-76.0537 -26H-79.0792L-66.9439 -4.95257L-103.35 -26ZM-22.2578 -0.026351L-4.17528 31.3363L-21.0202 21.5976L-58.4231 -0.026351H-22.2578ZM21.1007 -0.026351H57.3003L19.8973 21.5976L3.00086 31.3661L21.1007 -0.026351ZM103.279 -0.026351L121.362 31.3363L67.114 -0.026351H103.279ZM146.638 -0.026351H182.838L128.538 31.3661L146.638 -0.026351ZM228.816 -0.026351L246.899 31.3363L230.054 21.5976L192.651 -0.026351H228.816ZM272.175 -0.026351H308.375L254.075 31.3661L272.175 -0.026351ZM354.354 -0.026351L372.436 31.3363L360.797 24.6075L318.189 -0.026351H354.354ZM397.712 -0.026351H433.912L406.784 15.6574L379.612 31.3661L397.712 -0.026351ZM479.891 -0.026351L497.973 31.3363L470.854 15.6574L443.726 -0.026351H479.891ZM523.249 -0.026351H559.449L532.321 15.6574L505.15 31.3661L523.249 -0.026351ZM460.481 686.737L442.372 655.33L482.374 678.456L496.698 686.737H460.481ZM334.944 686.737L316.835 655.33L360.38 680.504L371.16 686.737H334.944ZM209.406 686.737L191.298 655.33L233.258 679.588L245.623 686.737H209.406ZM83.8694 686.737L65.761 655.33L103.34 677.055L120.086 686.737H83.8694ZM-41.668 686.737L-59.7765 655.33L-17.8161 679.588L-5.45085 686.737H-41.668ZM560.751 2.25099L542.659 33.6287H506.477L533.631 17.9299L560.751 2.25099ZM166.048 36.2526L184.131 67.6149L129.883 36.2526H166.048ZM291.585 36.2526L309.668 67.6153L255.42 36.2526H291.585ZM417.122 36.2526L435.205 67.6149L380.957 36.2526H417.122ZM542.659 36.2526L560.742 67.6149L506.494 36.2526H542.659ZM542.659 108.82L560.742 140.183L506.494 108.82H542.659ZM542.659 181.388L560.742 212.75L506.494 181.388H542.659ZM542.659 253.955L560.742 285.318L506.494 253.955H542.659ZM542.659 326.523L560.742 357.886L506.494 326.523H542.659ZM542.659 399.09L560.742 430.453L506.494 399.09H542.659ZM542.659 471.658L560.742 503.02L506.494 471.658H542.659ZM542.659 544.226L560.742 575.588L506.494 544.226H542.659ZM542.659 616.793L560.742 648.156L506.494 616.793H542.659ZM40.5106 36.2526L58.5931 67.6153L4.34529 36.2526H40.5106ZM189.055 3.57795L207.137 34.9407L189.055 66.3033V3.57795ZM314.592 3.57795L332.674 34.9407L314.592 66.3033V3.57795ZM291.585 614.169H255.403L309.676 582.792L291.585 614.169ZM-58.4231 580.514H-22.2578L-4.17528 611.877L-20.4435 602.472L-58.4231 580.514ZM-58.4231 290.244H-22.2578L-4.17528 321.607L-20.4435 312.201L-58.4231 290.244ZM-58.4231 217.676H-22.2578L-4.17528 249.039L-20.4435 239.634L-58.4231 217.676ZM417.122 614.169H380.94L435.213 582.792L417.122 614.169ZM166.048 614.169H129.865L184.139 582.792L166.048 614.169ZM40.5106 614.169H4.32832L58.6018 582.792L40.5106 614.169ZM334.944 614.169L316.835 582.762L330.479 590.65L371.16 614.169H334.944ZM166.048 108.82L184.131 140.183L129.883 108.82H166.048ZM291.585 108.82L309.668 140.183L255.42 108.82H291.585ZM417.122 108.82L435.205 140.183L380.957 108.82H417.122ZM484.231 603.932L443.726 580.514H479.891L497.973 611.877L484.231 603.932ZM21.1007 577.891L2.98364 546.468L57.3348 577.891H21.1007ZM40.5106 108.82L58.5935 140.183L4.34561 108.82H40.5106ZM189.055 76.1454L207.137 107.508L189.055 138.871V76.1454ZM314.592 76.1454L332.674 107.508L314.592 138.871V76.1454ZM496.698 178.764H460.481L442.372 147.356L469.544 163.065L496.698 178.764ZM496.698 396.466H460.481L442.372 365.059L482.374 388.186L496.698 396.466ZM496.698 469.034H460.481L442.372 437.627L482.374 460.753L496.698 469.034ZM496.698 541.602H460.481L442.372 510.194L469.544 525.903L496.698 541.602ZM291.585 541.602H255.403L305.172 512.828L309.676 510.224L291.585 541.602ZM26.1276 528.999L58.6018 510.224L40.5106 541.602H4.32832L26.1276 528.999ZM16.6933 461.885L58.6018 437.657L40.5106 469.034H4.328L16.6933 461.885ZM16.6933 389.318L58.6018 365.089L40.5106 396.466H4.32832L16.6933 389.318ZM26.1276 166.161L58.6018 147.386L40.5106 178.764H4.32832L26.1276 166.161ZM417.122 541.602H380.94L408.094 525.903L435.213 510.224L417.122 541.602ZM166.048 541.602H129.865L165.239 521.151L184.139 510.224L166.048 541.602ZM63.5174 148.713L81.6 180.076L63.5174 211.438V148.713ZM166.048 181.388L184.131 212.75L129.883 181.388H166.048ZM291.585 181.388L309.668 212.75L255.42 181.388H291.585ZM417.122 181.388L435.205 212.75L380.957 181.388H417.122ZM189.055 148.713L207.137 180.076L189.055 211.438V148.713ZM314.592 148.713L332.674 180.076L314.592 211.439V148.713ZM291.585 469.034H255.403L275.363 457.494L309.676 437.657L291.585 469.034ZM166.048 469.034H129.865L146.612 459.352L184.139 437.657L166.048 469.034ZM67.114 290.244H103.279L121.362 321.607L109.662 314.843L67.114 290.244ZM166.048 253.955L184.131 285.318L129.883 253.955H166.048ZM291.585 253.955L309.668 285.318L255.42 253.955H291.585ZM291.585 396.466H255.403L275.363 384.926L309.676 365.089L291.585 396.466ZM146.638 290.244H182.837L140.29 314.843L128.538 321.637L146.638 290.244ZM371.16 323.899H334.944L316.835 292.491L330.479 300.379L371.16 323.899ZM371.16 396.466H334.944L316.835 365.059L360.38 390.234L371.16 396.466ZM166.048 396.466H129.865L146.612 386.785L184.139 365.089L166.048 396.466ZM311.971 356.633L293.854 325.211L311.971 293.789V356.633ZM291.585 323.899H255.403L309.676 292.522L291.585 323.899ZM209.406 326.523H245.606L191.307 357.915L209.406 326.523ZM228.816 360.188H192.617L246.916 328.795L228.816 360.188ZM228.816 362.812L246.899 394.174L192.651 362.812H228.816ZM231.086 361.5L249.194 330.092V392.907L231.086 361.5ZM209.406 323.899L191.298 292.491L245.623 323.899H209.406ZM189.055 293.848L207.137 325.211L189.055 356.574V293.848ZM186.434 356.633L168.317 325.211L186.434 293.788V356.633ZM189.055 366.416L207.137 397.778L189.055 429.141V366.416ZM209.406 396.466L191.298 365.059L233.258 389.318L245.623 396.466H209.406ZM291.585 326.523L309.668 357.886L255.42 326.523H291.585ZM314.592 293.848L332.674 325.211L314.592 356.574V293.848ZM249.194 320.339L231.086 288.932L249.194 257.524V320.339ZM228.816 290.244L246.899 321.607L230.631 312.201L192.651 290.244H228.816ZM184.139 292.522L166.048 323.899H129.865L184.139 292.522ZM166.048 326.523L184.131 357.886L129.883 326.523H166.048ZM186.434 366.356V429.201L168.317 397.778L186.434 366.356ZM209.406 399.09H245.606L191.307 430.483L209.406 399.09ZM251.832 330.152L269.906 361.5L251.832 392.847V330.152ZM272.175 360.188L254.058 328.765L308.409 360.188H272.175ZM334.944 326.523H371.144L316.844 357.915L334.944 326.523ZM264.175 315.797L254.075 321.637L272.175 290.244H308.375L264.175 315.797ZM251.832 320.28V257.585L269.906 288.932L251.832 320.28ZM228.816 287.62H192.617L246.916 256.228L228.816 287.62ZM182.872 360.188H146.638L128.521 328.765L182.872 360.188ZM146.638 362.812H182.838L128.538 394.204L146.638 362.812ZM166.048 399.09L184.131 430.453L129.883 399.09H166.048ZM246.916 401.363L228.816 432.755H192.617L246.916 401.363ZM249.194 402.66V465.475L231.086 434.067L249.194 402.66ZM254.075 394.204L272.175 362.812H308.375L295.351 370.341L254.075 394.204ZM314.592 366.416L332.674 397.778L314.592 429.141V366.416ZM334.944 399.09H371.144L316.844 430.483L334.944 399.09ZM318.189 362.812H354.354L372.436 394.174L318.189 362.812ZM354.354 360.188H318.154L372.453 328.795L354.354 360.188ZM352.817 310.264L318.189 290.244H354.354L372.436 321.607L352.817 310.264ZM354.354 287.62H318.154L372.453 256.228L354.354 287.62ZM272.175 287.62L254.058 256.198L308.409 287.62H272.175ZM191.307 285.348L209.406 253.955H245.606L191.307 285.348ZM189.055 284.006V221.281L207.137 252.643L189.055 284.006ZM146.638 287.62L128.521 256.198L182.872 287.62H146.638ZM144.369 288.932L126.295 320.28V257.584L144.369 288.932ZM144.369 361.5L126.295 392.847V330.152L144.369 361.5ZM146.638 432.755L128.521 401.333L182.872 432.755H146.638ZM144.369 434.067L126.295 465.415V402.72L144.369 434.067ZM228.816 435.379L246.899 466.742L192.651 435.379H228.816ZM311.971 366.356V429.201L293.854 397.778L311.971 366.356ZM372.453 401.363L354.354 432.755H318.154L372.453 401.363ZM374.731 402.66V465.475L356.623 434.067L374.731 402.66ZM356.623 361.5L374.731 330.092V392.907L356.623 361.5ZM356.623 288.932L374.731 257.524V320.339L356.623 288.932ZM316.844 285.348L334.944 253.955H371.144L316.844 285.348ZM314.592 284.006V221.281L332.674 252.643L314.592 284.006ZM311.971 284.066L293.854 252.643L311.971 221.221V284.066ZM209.406 251.331L191.298 219.924L245.623 251.331H209.406ZM186.434 284.066L168.317 252.643L186.434 221.221V284.066ZM146.638 435.379H182.838L128.538 466.772L146.638 435.379ZM291.585 399.09L309.668 430.453L255.42 399.09H291.585ZM354.354 435.379L372.436 466.742L318.189 435.379H354.354ZM371.16 251.331H334.944L316.835 219.924L330.479 227.812L371.16 251.331ZM291.585 251.331H255.403L309.676 219.954L291.585 251.331ZM166.048 251.331H129.865L184.139 219.954L166.048 251.331ZM189.055 438.984L207.137 470.346L189.055 501.709V438.984ZM209.406 469.034L191.298 437.627L233.258 461.885L245.623 469.034H209.406ZM251.832 402.72L269.906 434.067L251.832 465.415V402.72ZM272.175 432.755L254.058 401.333L308.409 432.755H272.175ZM374.731 247.772L356.623 216.364L374.731 184.957V247.772ZM354.354 217.676L372.436 249.039L352.817 237.696L318.189 217.676H354.354ZM249.194 247.772L231.086 216.364L249.194 184.957V247.772ZM228.816 217.676L246.899 249.039L230.631 239.634L192.651 217.676H228.816ZM123.657 320.339L105.548 288.932L123.657 257.525V320.339ZM123.657 392.907L105.548 361.5L123.657 330.092V392.907ZM103.279 362.812L121.362 394.174L67.114 362.812H103.279ZM123.657 465.475L105.548 434.067L123.657 402.66V465.475ZM103.279 435.379L121.362 466.742L67.114 435.379H103.279ZM186.434 438.924V501.768L168.317 470.346L186.434 438.924ZM209.406 471.658H245.606L191.307 503.051L209.406 471.658ZM254.075 466.772L272.175 435.379H308.375L295.351 442.909L254.075 466.772ZM314.592 438.984L332.674 470.346L314.592 501.709V438.984ZM334.944 469.034L316.835 437.627L360.38 462.801L371.161 469.034H334.944ZM397.712 435.379H433.912L379.612 466.772L397.712 435.379ZM377.369 465.415V402.72L395.443 434.067L377.369 465.415ZM397.712 362.812H433.912L379.612 394.204L397.712 362.812ZM377.369 392.847V330.152L395.443 361.5L377.369 392.847ZM377.369 257.585L395.443 288.932L377.369 320.28V257.585ZM377.369 185.017L395.443 216.364L377.369 247.712V185.017ZM354.354 215.053H318.154L372.453 183.66L354.354 215.053ZM264.175 243.23L254.075 249.069L272.175 217.676H308.375L264.175 243.23ZM251.832 247.712V185.017L269.906 216.364L251.832 247.712ZM228.816 215.053H192.617L246.916 183.66L228.816 215.053ZM140.29 242.275L128.538 249.069L146.638 217.676H182.837L140.29 242.275ZM126.295 247.712V185.017L144.369 216.364L126.295 247.712ZM123.657 247.772L105.548 216.364L123.657 184.957V247.772ZM103.279 217.676L121.362 249.039L109.662 242.275L67.114 217.676H103.279ZM103.279 287.62H67.0794L121.379 256.228L103.279 287.62ZM103.279 360.188H67.0794L121.379 328.795L103.279 360.188ZM103.279 432.755H67.0794L121.379 401.363L103.279 432.755ZM103.279 505.323H67.0794L121.379 473.93L103.279 505.323ZM123.657 475.228V538.042L105.548 506.635L123.657 475.228ZM166.048 471.658L184.131 503.02L129.883 471.658H166.048ZM246.916 473.93L228.816 505.323H192.617L246.916 473.93ZM249.194 475.228V538.042L231.086 506.635L249.194 475.228ZM311.971 438.924V501.768L293.854 470.346L311.971 438.924ZM334.944 471.658H371.143L316.844 503.051L334.944 471.658ZM397.712 432.755L379.595 401.333L433.946 432.755H397.712ZM397.712 360.188L379.595 328.765L433.946 360.188H397.712ZM379.612 321.637L397.712 290.244H433.912L393.406 313.662L379.612 321.637ZM397.712 287.62L379.595 256.198L433.946 287.62H397.712ZM379.612 249.069L397.712 217.676H433.912L393.406 241.094L379.612 249.069ZM397.712 215.053L379.595 183.63L433.946 215.053H397.712ZM316.844 212.78L334.944 181.388H371.144L316.844 212.78ZM272.175 215.053L254.058 183.63L308.409 215.053H272.175ZM191.307 212.78L209.406 181.388H245.606L191.307 212.78ZM146.638 215.053L128.521 183.63L182.872 215.053H146.638ZM103.279 215.053H67.0794L121.379 183.66L103.279 215.053ZM120.086 251.331H83.8694L65.761 219.924L120.086 251.331ZM83.8691 253.955H120.069L65.7693 285.348L83.8691 253.955ZM120.086 323.899H83.8694L65.761 292.491L120.086 323.899ZM83.8691 326.523H120.069L65.7693 357.915L83.8691 326.523ZM103.34 386.785L120.086 396.466H83.8694L65.761 365.059L103.34 386.785ZM83.8691 399.09H120.069L65.7693 430.483L83.8691 399.09ZM103.34 459.352L120.086 469.034H83.8694L65.761 437.627L103.34 459.352ZM83.8691 471.658H120.069L65.7693 503.051L83.8691 471.658ZM67.114 507.947H103.279L121.362 539.31L99.8251 526.858L67.114 507.947ZM126.295 475.287L144.369 506.635L126.295 537.982V475.287ZM146.638 505.323L128.521 473.901L182.872 505.323H146.638ZM192.651 507.947H228.816L246.899 539.309L211.21 518.676L192.651 507.947ZM291.585 471.658L309.668 503.02L255.42 471.658H291.585ZM372.454 473.93L354.354 505.323H318.154L372.454 473.93ZM374.731 475.228V538.042L356.623 506.635L374.731 475.228ZM377.369 475.287L395.443 506.635L377.369 537.982V475.287ZM397.712 505.323L379.595 473.9L433.946 505.323H397.712ZM380.957 471.658H417.122L435.205 503.02L380.957 471.658ZM417.122 469.034H380.94L395.263 460.753L435.213 437.657L417.122 469.034ZM380.957 399.09H417.122L435.205 430.453L380.957 399.09ZM417.122 396.466H380.94L395.263 388.186L435.213 365.089L417.122 396.466ZM380.957 326.523H417.122L435.205 357.886L380.957 326.523ZM417.122 323.899H380.94L435.213 292.522L417.122 323.899ZM380.957 253.955H417.122L435.205 285.318L380.957 253.955ZM417.122 251.331H380.94L435.213 219.954L417.122 251.331ZM371.16 178.764H334.944L316.835 147.356L353.155 168.354L371.16 178.764ZM311.971 211.498L293.854 180.076L311.971 148.653V211.498ZM245.623 178.764H209.406L191.298 147.356L223.824 166.161L245.623 178.764ZM186.434 211.498L168.317 180.076L186.434 148.653V211.498ZM65.7693 212.78L83.8691 181.388H120.069L65.7693 212.78ZM63.5174 221.281L81.6 252.643L63.5174 284.006V221.281ZM63.5174 293.848L81.6 325.211L63.5174 356.574V293.848ZM63.5174 366.416L81.6 397.778L63.5174 429.141V366.416ZM63.5174 438.984L81.6 470.346L63.5174 501.709V438.984ZM63.5174 511.551L81.6 542.914L63.5174 574.276V511.551ZM83.8694 541.602L65.761 510.194L84.7126 521.151L120.086 541.602H83.8694ZM128.538 539.339L146.638 507.947H182.837L150.127 526.858L128.538 539.339ZM189.055 511.551L207.137 542.914L189.055 574.276V511.551ZM209.406 541.602L191.298 510.194L223.824 528.999L245.623 541.602H209.406ZM251.832 475.287L269.906 506.635L251.832 537.982V475.287ZM272.175 505.323L254.058 473.9L308.409 505.323H272.175ZM318.189 507.947H354.354L372.436 539.309L321.737 509.998L318.189 507.947ZM379.612 539.339L397.712 507.947H433.912L406.784 523.631L379.612 539.339ZM419.392 470.346L437.509 438.924V501.769L419.392 470.346ZM419.392 397.778L437.509 366.356V429.201L419.392 397.778ZM419.392 325.211L437.509 293.788V356.633L419.392 325.211ZM419.392 252.643L437.509 221.221V284.066L419.392 252.643ZM419.392 180.076L437.509 148.653V211.498L419.392 180.076ZM435.213 147.386L417.122 178.764H380.94L408.094 163.065L435.213 147.386ZM374.731 175.204L356.623 143.797L374.731 112.389V175.204ZM354.354 145.109L372.436 176.472L321.737 147.16L318.188 145.109H354.354ZM309.676 147.386L291.585 178.764H255.403L305.172 149.991L309.676 147.386ZM249.194 175.204L231.086 143.797L249.194 112.389V175.204ZM228.816 145.109L246.899 176.472L211.21 155.838L192.651 145.109H228.816ZM184.139 147.386L166.048 178.764H129.865L165.239 158.313L184.139 147.386ZM120.086 178.764H83.8694L65.761 147.356L84.7126 158.313L120.086 178.764ZM60.8971 211.498L42.78 180.076L60.8971 148.653V211.498ZM60.8971 284.066L42.78 252.643L60.8971 221.221V284.066ZM60.8971 356.633L42.78 325.211L60.8971 293.788V356.633ZM60.8971 429.201L42.78 397.778L60.8971 366.356V429.201ZM60.8971 501.768L42.78 470.346L60.8971 438.924V501.768ZM60.8971 574.336L42.78 542.914L60.8971 511.491V574.336ZM83.8691 544.226H120.069L65.7693 575.618L83.8691 544.226ZM186.434 511.491V574.336L168.317 542.914L186.434 511.491ZM209.406 544.226H245.606L191.307 575.618L209.406 544.226ZM254.075 539.339L272.175 507.947H308.375L271.708 529.145L254.075 539.339ZM314.592 511.551L332.674 542.914L314.592 574.276V511.551ZM334.944 541.602L316.835 510.194L353.155 531.192L371.16 541.602H334.944ZM437.509 511.491V574.336L419.392 542.914L437.509 511.491ZM440.129 511.551L458.212 542.914L440.129 574.276V511.551ZM440.129 438.984L458.212 470.346L440.129 501.709V438.984ZM440.129 366.416L458.212 397.778L440.129 429.141V366.416ZM440.129 293.848L458.212 325.211L440.129 356.574V293.848ZM440.129 221.281L458.212 252.643L440.129 284.006V221.281ZM440.129 148.713L458.212 180.076L440.129 211.438V148.713ZM406.784 160.793L379.612 176.501L397.712 145.109H433.912L406.784 160.793ZM377.369 175.145V112.449L395.443 143.797L377.369 175.145ZM354.354 142.485H318.154L372.454 111.092L354.354 142.485ZM271.708 166.307L254.075 176.501L272.175 145.109H308.375L271.708 166.307ZM251.832 175.145V112.449L269.906 143.797L251.832 175.145ZM228.816 142.485H192.617L246.916 111.092L228.816 142.485ZM150.127 164.02L128.538 176.501L146.638 145.109H182.838L150.127 164.02ZM126.295 175.145V112.449L144.369 143.797L126.295 175.145ZM123.657 175.204L105.548 143.797L123.657 112.389V175.204ZM103.279 145.109L121.362 176.472L99.8251 164.02L67.114 145.109H103.279ZM40.5106 181.388L58.5935 212.751L4.34529 181.388H40.5106ZM58.6018 219.954L40.5106 251.331H4.32832L58.6018 219.954ZM40.5106 253.955L58.5935 285.318L4.34529 253.955H40.5106ZM58.6018 292.522L40.5106 323.899H4.32832L58.6018 292.522ZM40.5106 326.523L58.5935 357.886L4.34529 326.523H40.5106ZM40.5106 399.09L58.5935 430.453L4.34529 399.09H40.5106ZM40.5106 471.658L58.5931 503.02L4.34561 471.658H40.5106ZM40.5106 544.226L58.5935 575.588L4.34529 544.226H40.5106ZM121.379 546.498L103.279 577.891H67.0794L121.379 546.498ZM123.657 547.795V610.61L105.548 579.203L123.657 547.795ZM166.048 544.226L184.131 575.588L129.883 544.226H166.048ZM246.916 546.498L228.816 577.891H192.617L246.916 546.498ZM249.194 547.795V610.61L231.086 579.203L249.194 547.795ZM311.971 511.491V574.336L293.854 542.914L311.971 511.491ZM334.944 544.226H371.144L316.844 575.618L334.944 544.226ZM417.122 544.226L435.205 575.588L380.957 544.226H417.122ZM460.481 544.226H496.681L442.381 575.618L460.481 544.226ZM460.481 471.658H496.681L442.381 503.051L460.481 471.658ZM460.481 399.09H496.681L442.381 430.483L460.481 399.09ZM460.481 326.523H496.681L442.381 357.915L460.481 326.523ZM460.481 323.899L442.372 292.491L496.698 323.899H460.481ZM460.481 253.955H496.681L442.381 285.348L460.481 253.955ZM460.481 251.331L442.372 219.924L496.698 251.331H460.481ZM460.481 181.388H496.681L442.381 212.78L460.481 181.388ZM397.712 142.485L379.595 111.062L433.946 142.485H397.712ZM316.844 140.213L334.944 108.82H371.143L316.844 140.213ZM272.175 142.485L254.058 111.062L308.409 142.485H272.175ZM191.307 140.213L209.406 108.82H245.606L191.307 140.213ZM146.638 142.485L128.521 111.062L182.872 142.485H146.638ZM103.279 142.485H67.0794L121.379 111.092L103.279 142.485ZM60.8971 138.931L42.78 107.508L60.8971 76.0859V138.931ZM57.3348 142.485H21.1007L2.98364 111.062L57.3348 142.485ZM21.1007 145.109H57.3006L38.7421 155.838L3.00053 176.501L21.1007 145.109ZM57.3348 215.053H21.1007L2.98364 183.63L57.3348 215.053ZM21.1007 217.676H57.3003L19.3209 239.634L3.00086 249.069L21.1007 217.676ZM57.3348 287.62H21.1007L2.98364 256.198L57.3348 287.62ZM21.1007 290.244H57.3003L19.3209 312.201L3.00086 321.637L21.1007 290.244ZM57.3348 360.188H21.1007L2.98364 328.765L57.3348 360.188ZM21.1007 362.812H57.3003L3.00086 394.204L21.1007 362.812ZM57.3348 432.755H21.1007L2.98364 401.333L57.3348 432.755ZM21.1007 435.379H57.3003L3.00086 466.772L21.1007 435.379ZM57.3348 505.323H21.1007L2.98331 473.901L57.3348 505.323ZM21.1007 507.947H57.3003L38.7421 518.676L3.00053 539.339L21.1007 507.947ZM67.114 580.514H103.279L121.362 611.877L109.662 605.113L67.114 580.514ZM126.295 547.855L144.369 579.203L126.295 610.55V547.855ZM146.638 577.891L128.521 546.468L182.872 577.891H146.638ZM192.651 580.514H228.816L246.899 611.877L230.631 602.472L192.651 580.514ZM291.585 544.226L309.668 575.588L255.42 544.226H291.585ZM372.453 546.498L354.354 577.891H318.154L372.453 546.498ZM374.731 547.795V610.61L356.623 579.203L374.731 547.795ZM377.369 547.855L395.443 579.203L377.369 610.55V547.855ZM397.712 577.891L379.595 546.468L433.946 577.891H397.712ZM479.891 577.891H443.691L497.991 546.498L479.891 577.891ZM470.854 523.631L443.726 507.947H479.891L497.973 539.309L470.854 523.631ZM479.891 505.323H443.691L497.991 473.93L479.891 505.323ZM443.726 435.379H479.891L497.973 466.742L443.726 435.379ZM479.891 432.755H443.691L497.991 401.363L479.891 432.755ZM443.726 362.812H479.891L497.973 394.174L443.726 362.812ZM479.891 360.188H443.691L497.991 328.795L479.891 360.188ZM484.231 313.662L443.726 290.244H479.891L497.973 321.607L484.231 313.662ZM479.891 287.62H443.691L497.991 256.228L479.891 287.62ZM484.231 241.094L443.726 217.676H479.891L497.973 249.039L484.231 241.094ZM479.891 215.053H443.691L497.991 183.66L479.891 215.053ZM470.854 160.793L443.726 145.109H479.891L497.973 176.472L470.854 160.793ZM479.891 142.485H443.691L497.991 111.092L479.891 142.485ZM442.381 140.213L460.481 108.82H496.681L442.381 140.213ZM440.129 138.871V76.1458L458.212 107.508L440.129 138.871ZM437.509 138.931L419.392 107.508L437.509 76.0856V138.931ZM371.161 106.196H334.944L316.835 74.7886L353.057 95.7301L371.161 106.196ZM311.971 138.93L293.854 107.508L311.971 76.0859V138.93ZM245.623 106.196H209.406L191.298 74.7886L223.757 93.5547L245.623 106.196ZM186.434 138.931L168.317 107.508L186.434 76.0859V138.931ZM65.7693 140.213L83.8691 108.82H120.069L65.7693 140.213ZM63.5174 138.871V76.1454L81.6 107.508L63.5174 138.871ZM58.6018 74.8187L40.5106 106.196H4.328L26.1945 93.5547L58.6018 74.8187ZM18.8313 143.797L0.757343 175.145V112.449L18.8313 143.797ZM18.8313 216.364L0.757343 247.712V185.017L18.8313 216.364ZM18.8313 288.932L0.757343 320.28V257.584L18.8313 288.932ZM18.8313 361.5L0.757343 392.847V330.152L18.8313 361.5ZM18.8313 434.067L0.757343 465.415V402.72L18.8313 434.067ZM18.8313 506.635L0.757343 537.982V475.287L18.8313 506.635ZM18.8313 579.203L0.757343 610.55V547.855L18.8313 579.203ZM3.00086 611.907L21.1007 580.514H57.3003L19.3209 602.472L3.00086 611.907ZM128.538 611.907L146.638 580.514H182.837L140.29 605.113L128.538 611.907ZM251.832 547.855L269.906 579.203L251.832 610.55V547.855ZM272.175 577.891L254.058 546.468L308.409 577.891H272.175ZM318.189 580.514H354.354L372.436 611.877L352.817 600.534L318.189 580.514ZM379.612 611.907L397.712 580.514H433.912L393.406 603.932L379.612 611.907ZM482.16 579.203L500.269 547.795V610.61L482.16 579.203ZM482.16 506.635L500.269 475.228V538.042L482.16 506.635ZM482.16 434.067L500.269 402.66V465.475L482.16 434.067ZM482.16 361.5L500.269 330.092V392.907L482.16 361.5ZM482.16 288.932L500.269 257.524V320.339L482.16 288.932ZM482.16 216.364L500.269 184.957V247.772L482.16 216.364ZM482.16 143.797L500.269 112.389V175.204L482.16 143.797ZM496.698 106.196H460.481L442.372 74.7886L469.544 90.4974L496.698 106.196ZM435.213 74.8187L417.122 106.196H380.94L408.094 90.4974L435.213 74.8187ZM309.676 74.8185L291.585 106.196H255.403L304.585 77.7617L309.676 74.8185ZM184.139 74.8187L166.048 106.196H129.865L165.083 85.8358L184.139 74.8187ZM120.086 106.196H83.8694L65.7606 74.7886L84.8687 85.8358L120.086 106.196ZM63.5174 584.118L81.6 615.481L63.5174 646.844V584.118ZM83.8694 614.169L65.761 582.762L120.086 614.169H83.8694ZM189.055 584.118L207.137 615.481L189.055 646.844V584.118ZM209.406 614.169L191.298 582.762L245.623 614.169H209.406ZM254.075 611.907L272.175 580.514H308.375L264.175 606.068L254.075 611.907ZM460.481 614.169L442.372 582.762L496.698 614.169H460.481ZM458.212 615.481L440.129 646.844V584.119L458.212 615.481ZM374.731 102.637L356.623 71.2295L374.731 39.822V102.637ZM354.354 72.5415L372.436 103.904L318.189 72.5415H354.354ZM249.194 102.637L231.086 71.2295L249.194 39.822V102.637ZM228.816 72.5415L246.899 103.904L192.651 72.5415H228.816ZM3.00086 103.934L21.1007 72.5415H57.3003L3.00086 103.934ZM0.757343 102.577V39.8816L18.8313 71.2295L0.757343 102.577ZM60.8971 584.059V646.904L42.78 615.481L60.8971 584.059ZM83.8691 616.793H120.069L65.7693 648.186L83.8691 616.793ZM186.434 584.059V646.904L168.317 615.481L186.434 584.059ZM209.406 616.793H245.606L191.307 648.186L209.406 616.793ZM314.592 584.118L332.674 615.481L314.592 646.844V584.118ZM334.944 616.793H371.144L316.844 648.186L334.944 616.793ZM437.509 584.059V646.904L419.392 615.481L437.509 584.059ZM460.481 616.793H496.681L442.381 648.186L460.481 616.793ZM502.906 402.72L520.98 434.067L502.906 465.415V402.72ZM502.906 330.152L520.98 361.5L502.906 392.847V330.152ZM502.906 39.8816L520.98 71.2295L502.906 102.577V39.8816ZM500.269 102.637L482.16 71.2295L500.269 39.822V102.637ZM479.891 72.5415L497.973 103.904L443.726 72.5415H479.891ZM379.612 103.934L397.712 72.5415H433.912L379.612 103.934ZM377.369 102.577V39.8819L395.443 71.2295L377.369 102.577ZM354.354 69.9176H318.154L372.454 38.5248L354.354 69.9176ZM254.075 103.934L272.175 72.5415H308.375L254.075 103.934ZM251.832 102.577V39.8819L269.906 71.2295L251.832 102.577ZM228.816 69.9176H192.617L246.916 38.5248L228.816 69.9176ZM128.538 103.934L146.638 72.5415H182.837L128.538 103.934ZM126.295 102.577V39.8816L144.369 71.2295L126.295 102.577ZM123.657 102.637L105.548 71.2295L123.657 39.822V102.637ZM103.279 72.5415L121.362 103.904L67.114 72.5415H103.279ZM21.1007 69.9176L2.98364 38.495L57.3348 69.9176H21.1007ZM-1.8802 102.637L-19.9886 71.2295L-1.8802 39.822V102.637ZM-22.2578 72.5415L-4.17528 103.904L-58.4231 72.5415H-22.2578ZM-1.8802 175.204L-19.9886 143.797L-1.8802 112.389V175.204ZM-1.8802 247.772L-19.9886 216.364L-1.8802 184.957V247.772ZM-1.8802 320.339L-19.9886 288.932L-1.8802 257.524V320.339ZM-1.8802 392.907L-19.9886 361.5L-1.8802 330.092V392.907ZM-22.2578 362.812L-4.17528 394.174L-58.4231 362.812H-22.2578ZM-1.8802 465.475L-19.9886 434.067L-1.8802 402.66V465.475ZM-22.2578 435.379L-4.17528 466.742L-58.4231 435.379H-22.2578ZM-1.8802 538.042L-19.9886 506.635L-1.8802 475.228V538.042ZM-1.8802 610.61L-19.9886 579.203L-1.8802 547.795V610.61ZM-1.8802 683.178L-19.9886 651.77L-1.8802 620.363V683.178ZM40.5106 616.793L58.5935 648.156L4.34529 616.793H40.5106ZM121.379 619.066L103.279 650.458H67.0794L121.379 619.066ZM123.657 620.363V683.178L105.548 651.77L123.657 620.363ZM166.048 616.793L184.131 648.156L129.883 616.793H166.048ZM246.916 619.066L228.816 650.458H192.617L246.916 619.066ZM249.194 620.363V683.178L231.086 651.77L249.194 620.363ZM311.971 584.059V646.904L293.854 615.481L311.971 584.059ZM372.453 619.066L354.354 650.458H318.154L372.453 619.066ZM374.731 620.363V683.178L356.623 651.77L374.731 620.363ZM417.122 616.793L435.205 648.156L380.957 616.793H417.122ZM497.991 619.066L479.891 650.458H443.691L497.991 619.066ZM500.269 620.363V683.178L482.16 651.77L500.269 620.363ZM502.906 547.855L520.98 579.203L502.906 610.55V547.855ZM523.249 577.891L505.132 546.468L559.484 577.891H523.249ZM502.906 475.287L520.98 506.635L502.906 537.983V475.287ZM523.249 505.323L505.132 473.901L559.484 505.323H523.249ZM523.249 435.379H559.449L505.15 466.772L523.249 435.379ZM523.249 432.755L505.132 401.333L559.484 432.755H523.249ZM523.249 362.812H559.449L505.15 394.204L523.249 362.812ZM523.249 360.188L505.132 328.765L559.484 360.188H523.249ZM502.906 257.584L520.98 288.932L502.906 320.28V257.584ZM523.249 287.62L505.132 256.198L559.484 287.62H523.249ZM502.906 185.017L520.98 216.364L502.906 247.712V185.017ZM523.249 215.053L505.132 183.63L559.484 215.053H523.249ZM502.906 112.449L520.98 143.797L502.906 175.145V112.449ZM523.249 142.485L505.132 111.062L559.484 142.485H523.249ZM523.249 72.5415H559.449L505.15 103.934L523.249 72.5415ZM523.249 69.9176L505.132 38.495L559.484 69.9176H523.249ZM479.891 69.9176H443.691L497.991 38.5248L479.891 69.9176ZM397.712 69.9176L379.595 38.495L433.946 69.9176H397.712ZM316.844 67.645L334.944 36.2526H371.144L316.844 67.645ZM272.175 69.9176L254.058 38.495L308.409 69.9176H272.175ZM191.307 67.645L209.406 36.2526H245.606L191.307 67.645ZM146.638 69.9176L128.521 38.495L182.872 69.9176H146.638ZM103.279 69.9176H67.0794L121.379 38.5248L103.279 69.9176ZM60.8971 66.3632L42.78 34.9407L60.8971 3.51806V66.3632ZM-22.2581 69.9176H-58.4576L-4.15798 38.5248L-22.2581 69.9176ZM-22.2581 142.485H-58.4576L-4.15798 111.092L-22.2581 142.485ZM-58.4231 145.109H-22.2578L-4.17528 176.472L-39.865 155.838L-58.4231 145.109ZM-22.2581 215.053H-58.4576L-4.15798 183.66L-22.2581 215.053ZM-22.2581 287.62H-58.4576L-4.15798 256.228L-22.2581 287.62ZM-22.2581 360.188H-58.4576L-4.15798 328.795L-22.2581 360.188ZM-22.2581 432.755H-58.4576L-4.15798 401.363L-22.2581 432.755ZM-22.2581 505.323H-58.4576L-4.15798 473.93L-22.2581 505.323ZM-58.4231 507.947H-22.2578L-4.17528 539.309L-39.865 518.676L-58.4231 507.947ZM-22.2581 577.891H-58.4576L-4.15798 546.498L-22.2581 577.891ZM-22.2581 650.458H-58.4576L-4.15798 619.066L-22.2581 650.458ZM-22.2578 653.082L-4.17528 684.445L-58.4231 653.082H-22.2578ZM0.757343 620.422L18.8313 651.77L0.757343 683.118V620.422ZM21.1007 650.458L2.98364 619.036L57.3348 650.458H21.1007ZM103.279 653.082L121.362 684.445L67.114 653.082H103.279ZM126.295 620.422L144.369 651.77L126.295 683.118V620.422ZM146.638 650.458L128.521 619.036L182.872 650.458H146.638ZM228.816 653.082L246.899 684.445L192.651 653.082H228.816ZM291.585 616.793L309.668 648.156L255.42 616.793H291.585ZM354.354 653.082L372.436 684.445L318.189 653.082H354.354ZM377.369 620.422L395.443 651.77L377.369 683.118V620.422ZM397.712 650.458L379.595 619.036L433.946 650.458H397.712ZM479.891 653.082L497.973 684.445L443.726 653.082H479.891ZM502.906 620.422L520.98 651.77L502.906 683.118V620.422ZM523.249 650.458L505.132 619.036L559.484 650.458H523.249ZM505.15 611.907L523.249 580.514H559.449L518.943 603.932L505.15 611.907ZM505.15 539.339L523.249 507.947H559.449L532.321 523.631L505.15 539.339ZM505.15 321.637L523.249 290.244H559.449L518.943 313.662L505.15 321.637ZM505.15 249.069L523.249 217.676H559.449L518.943 241.094L505.15 249.069ZM505.15 176.501L523.249 145.109H559.449L532.321 160.793L505.15 176.501ZM442.381 67.645L460.481 36.2526H496.681L442.381 67.645ZM440.129 66.3033V3.57795L458.212 34.9407L440.129 66.3033ZM437.509 66.3632L419.392 34.9407L437.509 3.51806V66.3632ZM334.944 33.6287L316.835 2.2212L371.161 33.6287H334.944ZM311.971 66.3629L293.854 34.9407L311.971 3.51806V66.3629ZM209.406 33.6287L191.298 2.2212L245.623 33.6287H209.406ZM186.434 66.3632L168.317 34.9407L186.434 3.51806V66.3632ZM65.7693 67.645L83.8691 36.2526H120.069L65.7693 67.645ZM63.5174 66.3033V3.57795L81.6 34.9407L63.5174 66.3033ZM40.5106 33.6287H4.328L58.6018 2.25099L40.5106 33.6287ZM-41.668 33.6287L-59.7765 2.2212L-5.45085 33.6287H-41.668ZM-41.668 36.2526H-5.46814L-59.7678 67.645L-41.668 36.2526ZM-27.317 93.5547L-5.45085 106.196H-41.668L-59.7765 74.7886L-27.317 93.5547ZM-41.668 108.82H-5.46847L-59.7678 140.213L-41.668 108.82ZM-27.2505 166.161L-5.45085 178.764H-41.668L-59.7765 147.356L-27.2505 166.161ZM-41.668 181.388H-5.46814L-59.7678 212.78L-41.668 181.388ZM-5.45085 251.331H-41.668L-59.7765 219.924L-5.45085 251.331ZM-41.668 253.955H-5.46814L-59.7678 285.348L-41.668 253.955ZM-5.45085 323.899H-41.668L-59.7765 292.491L-5.45085 323.899ZM-41.668 326.523H-5.46814L-59.7678 357.915L-41.668 326.523ZM-17.8161 389.318L-5.45085 396.466H-41.668L-59.7765 365.059L-17.8161 389.318ZM-41.668 399.09H-5.46814L-59.7678 430.483L-41.668 399.09ZM-17.8161 461.885L-5.45085 469.034H-41.668L-59.7765 437.627L-17.8161 461.885ZM-41.668 471.658H-5.46847L-59.7678 503.051L-41.668 471.658ZM-27.2505 528.999L-5.45085 541.602H-41.668L-59.7765 510.194L-27.2505 528.999ZM-41.668 544.226H-5.46814L-59.7678 575.618L-41.668 544.226ZM-5.45085 614.169H-41.668L-59.7765 582.762L-5.45085 614.169ZM-41.668 616.793H-5.46814L-59.7678 648.186L-41.668 616.793ZM21.1007 653.082H57.3003L3.00086 684.474L21.1007 653.082ZM146.638 653.082H182.838L128.538 684.474L146.638 653.082ZM251.832 620.422L269.906 651.77L251.832 683.118V620.422ZM272.175 650.458L254.058 619.036L308.409 650.458H272.175ZM397.712 653.082H433.912L379.612 684.474L397.712 653.082ZM523.249 653.082H559.449L505.15 684.474L523.249 653.082ZM544.929 615.481L563.046 584.059V646.904L544.929 615.481ZM542.659 614.169H506.477L560.751 582.792L542.659 614.169ZM544.929 542.914L563.046 511.491V574.336L544.929 542.914ZM542.659 541.602H506.477L533.631 525.903L560.751 510.224L542.659 541.602ZM544.929 470.346L563.046 438.924V501.769L544.929 470.346ZM542.659 469.034H506.477L520.8 460.753L560.751 437.657L542.659 469.034ZM544.929 397.778L563.046 366.356V429.201L544.929 397.778ZM542.659 396.466H506.477L520.8 388.186L560.751 365.089L542.659 396.466ZM544.929 325.211L563.046 293.788V356.633L544.929 325.211ZM542.659 323.899H506.477L560.751 292.522L542.659 323.899ZM544.929 252.643L563.046 221.221V284.066L544.929 252.643ZM542.659 251.331H506.477L560.751 219.954L542.659 251.331ZM544.929 180.076L563.046 148.653V211.498L544.929 180.076ZM542.659 178.764H506.477L533.631 163.065L560.751 147.386L542.659 178.764ZM544.929 107.508L563.046 76.0856V138.931L544.929 107.508ZM542.659 106.196H506.477L533.631 90.4974L560.751 74.8187L542.659 106.196ZM544.929 34.9407L563.046 3.51806V66.3632L544.929 34.9407ZM496.698 33.6287H460.481L442.372 2.2212L469.544 17.9299L496.698 33.6287ZM435.213 2.25099L417.122 33.6287H380.94L408.094 17.9299L435.213 2.25099ZM309.676 2.25099L291.585 33.6287H255.403L267.709 26.5139L309.676 2.25099ZM184.139 2.25099L166.048 33.6287H129.865L147.165 23.6271L184.139 2.25099ZM120.086 33.6287H83.8694L65.761 2.2212L102.787 23.6271L120.086 33.6287ZM-62.02 3.57795L-43.9371 34.9407L-62.02 66.3033V3.57795ZM-62.02 76.1454L-43.9371 107.508L-62.02 138.871V76.1454ZM-62.02 148.713L-43.9371 180.076L-62.02 211.438V148.713ZM-62.02 221.281L-43.9371 252.643L-62.02 284.006V221.281ZM-62.02 293.848L-43.9371 325.211L-62.02 356.574V293.848ZM-62.02 366.416L-43.9371 397.778L-62.02 429.141V366.416ZM-62.02 438.984L-43.9371 470.346L-62.02 501.709V438.984ZM-62.02 511.551L-43.9371 542.914L-62.02 574.276V511.551ZM-62.02 584.118L-43.9371 615.481L-62.02 646.844V584.118ZM254.075 684.474L272.175 653.082H308.375L295.351 660.612L254.075 684.474ZM565.666 584.119L583.749 615.481L565.666 646.844V584.119ZM565.666 511.551L583.749 542.914L565.666 574.276V511.551ZM565.666 438.984L583.749 470.346L565.666 501.709V438.984ZM565.666 366.416L583.749 397.778L565.666 429.141V366.416ZM565.666 293.848L583.749 325.211L565.666 356.574V293.848ZM565.666 221.281L583.749 252.643L565.666 284.006V221.281ZM565.666 148.713L583.749 180.076L565.666 211.438V148.713ZM565.666 76.1458L583.749 107.508L565.666 138.871V76.1458ZM565.666 3.57795L583.749 34.9407L565.666 66.3033V3.57795ZM-64.6403 3.51806V66.3632L-82.7574 34.9407L-64.6403 3.51806ZM-64.6403 76.0859V138.931L-82.7574 107.508L-64.6403 76.0859ZM-64.6403 148.653V211.498L-82.7574 180.076L-64.6403 148.653ZM-64.6403 221.221V284.066L-82.7574 252.643L-64.6403 221.221ZM-64.6403 293.788V356.633L-82.7574 325.211L-64.6403 293.788ZM-64.6403 366.356V429.201L-82.7574 397.778L-64.6403 366.356ZM-64.6403 438.924V501.768L-82.7574 470.346L-64.6403 438.924ZM-64.6403 511.491V574.336L-82.7574 542.914L-64.6403 511.491ZM-64.6403 584.059V646.904L-82.7574 615.481L-64.6403 584.059ZM40.5106 686.737H4.32832L16.6933 679.588L58.6018 655.359L40.5106 686.737ZM166.048 686.737H129.865L146.612 677.055L184.139 655.359L166.048 686.737ZM291.585 686.737H255.403L275.363 675.197L309.676 655.359L291.585 686.737ZM417.122 686.737H380.94L395.263 678.456L435.213 655.359L417.122 686.737ZM542.659 686.737H506.477L520.8 678.456L560.751 655.359L542.659 686.737Z" fill="white"/>
<path d="M524.65 -26H519.41L559.798 -2.65024H523.564L511 -24.4402V-19.1924L521.294 -1.33829L511 16.5161V21.7639L523.564 -0.026351H559.763L511 28.1654V31.1951L524.09 23.6271L561.065 2.25099L542.974 33.6287H511V36.2526H542.974L561.056 67.6149L511 38.676V41.7057L559.798 69.9176H523.564L511 48.1273V53.3751L521.294 71.2295L511 89.0836V94.3313L523.564 72.5415H559.763L511 100.733V103.763L542.008 85.8358L561.065 74.8187L542.974 106.196H511V108.82H542.974L561.056 140.183L511 111.243V114.273L559.798 142.485H523.564L511 120.695V125.943L521.294 143.797L511 161.651V166.899L523.564 145.109H559.763L527.052 164.02L511 173.301V176.33L542.165 158.313L561.065 147.386L542.974 178.764H511V181.388H542.974L561.056 212.75L511 183.811V186.841L559.798 215.053H523.564L511 193.263V198.51L521.294 216.364L511 234.219V239.467L523.564 217.676H559.763L517.216 242.275L511 245.868V248.898L561.065 219.954L542.974 251.331H511V253.955H542.974L561.056 285.318L511 256.379V259.408L559.798 287.62H523.564L511 265.83V271.078L521.294 288.932L511 306.786V312.034L523.564 290.244H559.763L517.216 314.843L511 318.436V321.466L561.065 292.522L542.974 323.899H511V326.523H542.974L561.056 357.886L511 328.946V331.976L559.798 360.188H523.564L511 338.398V343.645L521.294 361.5L511 379.354V384.602L523.564 362.812H559.763L511 391.003V394.033L523.538 386.785L561.065 365.089L542.974 396.466H511V399.09H542.974L561.056 430.453L511 401.514V404.544L559.798 432.755H523.564L511 410.965V416.213L521.294 434.067L511 451.921V457.169L523.564 435.379H559.763L511 463.571V466.601L523.538 459.352L561.065 437.657L542.974 469.034H511V471.658H542.974L561.056 503.02L511 474.081V477.111L559.798 505.323H523.564L511 483.533V488.781L521.294 506.635L511 524.489V529.737L523.564 507.947H559.763L527.052 526.858L511 536.138V539.168L542.165 521.151L561.065 510.224L542.974 541.602H511V544.226H542.974L561.056 575.588L511 546.649V549.679L559.798 577.891H523.564L511 556.1V561.348L521.294 579.203L511 597.057V602.304L523.564 580.514H559.763L517.216 605.113L511 608.706V611.736L561.065 582.792L542.974 614.169H511V616.793H542.974L561.056 648.156L511 619.216V622.246L559.798 650.458H523.564L511 628.668V633.916L521.294 651.77L511 669.624V674.872L523.564 653.082H559.763L511 681.274V684.303L523.538 677.055L561.065 655.359L542.974 686.737H511V689.361H542.974L554.873 710H557.899L545.243 688.049L563.36 656.626V710H565.98V656.686L584.063 688.049L571.407 710H574.432L586.332 689.361H622.532L586.832 710H592.073L623.842 691.633L613.252 710H616.278L626.12 692.93V710H628.757V692.99L638.565 710H641.591L630.984 691.603L662.804 710H668.045L632.345 689.361H668.511L680.41 710H683.436L670.78 688.049L688.897 656.626V710H691.517V656.686L709.6 688.049L696.944 710H699.969L711.869 689.361H748.069L712.369 710H717.61L749.379 691.633L738.789 710H741.815L751.657 692.93V710H754.295V692.99L764.102 710H767.128L756.521 691.603L788.342 710H793.582L757.883 689.361H794.048L805.948 710H808.974L796.317 688.049L814.434 656.626V710H817.055V656.686L835.137 688.049L822.481 710H825.507L837.406 689.361H873.606L837.906 710H843.147L874.916 691.633L864.326 710H867.352L877.194 692.93V710H879.832V692.99L889.639 710H892.665L882.058 691.603L913.879 710H919.119L883.42 689.361H919.585L931.485 710H934.511L921.854 688.049L939.971 656.626V710H942.592V656.686L960.674 688.049L948.018 710H951.044L962.944 689.361H999.144L963.444 710H968.684L1000.45 691.633L989.864 710H992.889L1002.73 692.93V710H1005.37V692.99L1015.18 710H1018.2L1007.6 691.603L1039.42 710H1044.66L1008.96 689.361H1045.12L1057.02 710H1060.05L1047.39 688.049L1065.51 656.626V710H1068.13V656.686L1086.21 688.049L1073.56 710H1076.58L1088.48 689.361H1124.68L1088.98 710H1094.22L1125.99 691.633L1115.4 710H1118.43L1128.27 692.93V710H1130.91V692.99L1140.71 710H1143.74L1133.13 691.603L1164.95 710H1170.19L1134.49 689.361H1170.66L1182.56 710H1185.59L1172.93 688.049L1191.05 656.626V710H1193.67V656.686L1211.75 688.049L1199.09 710H1202.12L1214.02 689.361H1246V686.737H1214.02L1195.91 655.33L1235.91 678.456L1246 684.288V681.259L1197.26 653.082H1233.43L1246 674.887V669.639L1235.7 651.77L1246 633.901V628.653L1233.43 650.458H1197.23L1246 622.262V619.231L1195.92 648.186L1214.02 616.793H1246V614.169H1214.02L1195.91 582.762L1246 611.721V608.691L1237.77 603.932L1197.26 580.514H1233.43L1246 602.319V597.072L1235.7 579.203L1246 561.333V556.086L1233.43 577.891H1197.23L1246 549.694V546.664L1195.92 575.618L1214.02 544.226H1246V541.602H1214.02L1195.91 510.194L1223.08 525.903L1246 539.153V536.124L1224.39 523.631L1197.26 507.947H1233.43L1246 529.752V524.504L1235.7 506.635L1246 488.766V483.518L1233.43 505.323H1197.23L1246 477.126V474.096L1195.92 503.051L1214.02 471.658H1246V469.034H1214.02L1195.91 437.627L1235.91 460.753L1246 466.586V463.556L1197.26 435.379H1233.43L1246 457.184V451.936L1235.7 434.067L1246 416.198V410.95L1233.43 432.755H1197.23L1246 404.559V401.529L1195.92 430.483L1214.02 399.09H1246V396.466H1214.02L1195.91 365.059L1235.91 388.186L1246 394.018V390.988L1197.26 362.812H1233.43L1246 384.617V379.369L1235.7 361.5L1246 343.631V338.383L1233.43 360.188H1197.23L1246 331.991V328.961L1195.92 357.915L1214.02 326.523H1246V323.899H1214.02L1195.91 292.491L1246 321.451V318.421L1237.77 313.662L1197.26 290.244H1233.43L1246 312.049V306.801L1235.7 288.932L1246 271.063V265.815L1233.43 287.62H1197.23L1246 259.423V256.394L1195.92 285.348L1214.02 253.955H1246V251.331H1214.02L1195.91 219.924L1246 248.883V245.853L1237.77 241.094L1197.26 217.676H1233.43L1246 239.481V234.234L1235.7 216.364L1246 198.495V193.248L1233.43 215.053H1197.23L1246 186.856V183.826L1195.92 212.78L1214.02 181.388H1246V178.764H1214.02L1195.91 147.356L1223.08 163.065L1246 176.315V173.286L1224.39 160.793L1197.26 145.109H1233.43L1246 166.914V161.666L1235.7 143.797L1246 125.928V120.68L1233.43 142.485H1197.23L1246 114.288V111.258L1195.92 140.213L1214.02 108.82H1246V106.196H1214.02L1195.91 74.7886L1223.08 90.4974L1246 103.748V100.718L1197.26 72.5415H1233.43L1246 94.3464V89.0987L1235.7 71.2295L1246 53.3603V48.1126L1233.43 69.9176H1197.23L1246 41.7207V38.6911L1195.92 67.645L1214.02 36.2526H1246V33.6287H1214.02L1195.91 2.2212L1223.08 17.9299L1246 31.1803V28.1503L1224.39 15.6574L1197.26 -0.026351H1233.43L1246 21.7786V16.5308L1235.7 -1.33829L1246 -19.2074V-24.4552L1233.43 -2.65024H1197.23L1237.62 -26H1232.38L1195.92 -4.92245L1208.07 -26H1205.04L1193.67 -6.26451V-26H1191.05V-6.20462L1179.63 -26H1176.61L1188.74 -4.95257L1152.34 -26H1147.1L1187.48 -2.65024H1151.25L1137.79 -26H1134.76L1148.98 -1.33829L1130.91 30.0097V-26H1128.27V30.0692L1110.16 -1.33829L1124.38 -26H1121.35L1107.89 -2.65024H1071.69L1112.08 -26H1106.84L1070.38 -4.92245L1082.53 -26H1079.51L1068.13 -6.26451V-26H1065.51V-6.20462L1054.1 -26H1051.07L1063.2 -4.95257L1026.8 -26H1021.56L1061.95 -2.65024H1025.71L1012.25 -26H1009.22L1023.44 -1.33829L1005.37 30.0093V-26H1002.73V30.0692L984.623 -1.33829L998.842 -26H995.816L982.354 -2.65024H946.154L986.542 -26H981.302L944.844 -4.92245L956.996 -26H953.97L942.592 -6.26418V-26H939.971V-6.20462L928.558 -26H925.532L937.668 -4.95257L901.262 -26H896.021L936.409 -2.65024H900.175L886.712 -26H883.687L897.906 -1.33829L879.832 30.0093V-26H877.194V30.0692L859.086 -1.33829L873.305 -26H870.279L856.816 -2.65024H820.617L861.005 -26H855.764L819.307 -4.92245L831.459 -26H828.433L817.055 -6.26451V-26H814.434V-6.20462L803.021 -26H799.995L812.131 -4.95257L775.725 -26H770.484L810.872 -2.65024H774.638L761.175 -26H758.149L772.369 -1.33829L754.295 30.0093V-26H751.657V30.0692L733.548 -1.33829L747.768 -26H744.742L731.279 -2.65024H695.079L735.468 -26H730.227L693.769 -4.92245L705.922 -26H702.896L691.517 -6.26451V-26H688.897V-6.20462L677.484 -26H674.458L686.593 -4.95257L650.187 -26H644.947L685.335 -2.65024H649.101L635.638 -26H632.612L646.831 -1.33829L628.757 30.0093V-26H626.12V30.0692L608.011 -1.33829L622.231 -26H619.205L605.742 -2.65024H569.542L609.931 -26H604.69L568.232 -4.92245L580.385 -26H577.359L565.98 -6.26451V-26H563.36V-6.20462L551.946 -26H548.921L561.056 -4.95257L524.65 -26ZM605.742 -0.026351L623.825 31.3363L606.98 21.5976L569.577 -0.026351H605.742ZM649.101 -0.026351H685.3L647.897 21.5976L631.001 31.3661L649.101 -0.026351ZM731.279 -0.026351L749.362 31.3363L695.114 -0.026351H731.279ZM774.638 -0.026351H810.838L756.538 31.3661L774.638 -0.026351ZM856.816 -0.026351L874.899 31.3363L858.054 21.5976L820.651 -0.026351H856.816ZM900.175 -0.026351H936.375L882.075 31.3661L900.175 -0.026351ZM982.354 -0.026351L1000.44 31.3363L988.797 24.6075L946.189 -0.026351H982.354ZM1025.71 -0.026351H1061.91L1034.78 15.6574L1007.61 31.3661L1025.71 -0.026351ZM1107.89 -0.026351L1125.97 31.3363L1098.85 15.6574L1071.73 -0.026351H1107.89ZM1151.25 -0.026351H1187.45L1160.32 15.6574L1133.15 31.3661L1151.25 -0.026351ZM1088.48 686.737L1070.37 655.33L1110.37 678.456L1124.7 686.737H1088.48ZM962.944 686.737L944.835 655.33L988.38 680.504L999.16 686.737H962.944ZM837.406 686.737L819.298 655.33L861.258 679.588L873.623 686.737H837.406ZM711.869 686.737L693.761 655.33L731.34 677.055L748.086 686.737H711.869ZM586.332 686.737L568.224 655.33L610.184 679.588L622.549 686.737H586.332ZM1188.75 2.25099L1170.66 33.6287H1134.48L1161.63 17.9299L1188.75 2.25099ZM794.048 36.2526L812.131 67.6149L757.883 36.2526H794.048ZM919.585 36.2526L937.668 67.6153L883.42 36.2526H919.585ZM1045.12 36.2526L1063.2 67.6149L1008.96 36.2526H1045.12ZM1170.66 36.2526L1188.74 67.6149L1134.49 36.2526H1170.66ZM1170.66 108.82L1188.74 140.183L1134.49 108.82H1170.66ZM1170.66 181.388L1188.74 212.75L1134.49 181.388H1170.66ZM1170.66 253.955L1188.74 285.318L1134.49 253.955H1170.66ZM1170.66 326.523L1188.74 357.886L1134.49 326.523H1170.66ZM1170.66 399.09L1188.74 430.453L1134.49 399.09H1170.66ZM1170.66 471.658L1188.74 503.02L1134.49 471.658H1170.66ZM1170.66 544.226L1188.74 575.588L1134.49 544.226H1170.66ZM1170.66 616.793L1188.74 648.156L1134.49 616.793H1170.66ZM668.511 36.2526L686.593 67.6153L632.345 36.2526H668.511ZM817.055 3.57795L835.137 34.9407L817.055 66.3033V3.57795ZM942.592 3.57795L960.674 34.9407L942.592 66.3033V3.57795ZM919.585 614.169H883.403L937.676 582.792L919.585 614.169ZM569.577 580.514H605.742L623.825 611.877L607.557 602.472L569.577 580.514ZM569.577 290.244H605.742L623.825 321.607L607.557 312.201L569.577 290.244ZM569.577 217.676H605.742L623.825 249.039L607.557 239.634L569.577 217.676ZM1045.12 614.169H1008.94L1063.21 582.792L1045.12 614.169ZM794.048 614.169H757.865L812.139 582.792L794.048 614.169ZM668.511 614.169H632.328L686.602 582.792L668.511 614.169ZM962.944 614.169L944.835 582.762L958.479 590.65L999.16 614.169H962.944ZM794.048 108.82L812.131 140.183L757.883 108.82H794.048ZM919.585 108.82L937.668 140.183L883.42 108.82H919.585ZM1045.12 108.82L1063.2 140.183L1008.96 108.82H1045.12ZM1112.23 603.932L1071.73 580.514H1107.89L1125.97 611.877L1112.23 603.932ZM649.101 577.891L630.984 546.468L685.335 577.891H649.101ZM668.511 108.82L686.593 140.183L632.346 108.82H668.511ZM817.055 76.1454L835.137 107.508L817.055 138.871V76.1454ZM942.592 76.1454L960.674 107.508L942.592 138.871V76.1454ZM1124.7 178.764H1088.48L1070.37 147.356L1097.54 163.065L1124.7 178.764ZM1124.7 396.466H1088.48L1070.37 365.059L1110.37 388.186L1124.7 396.466ZM1124.7 469.034H1088.48L1070.37 437.627L1110.37 460.753L1124.7 469.034ZM1124.7 541.602H1088.48L1070.37 510.194L1097.54 525.903L1124.7 541.602ZM919.585 541.602H883.403L933.172 512.828L937.676 510.224L919.585 541.602ZM654.128 528.999L686.602 510.224L668.511 541.602H632.328L654.128 528.999ZM644.693 461.885L686.602 437.657L668.511 469.034H632.328L644.693 461.885ZM644.693 389.318L686.602 365.089L668.511 396.466H632.328L644.693 389.318ZM654.128 166.161L686.602 147.386L668.511 178.764H632.328L654.128 166.161ZM1045.12 541.602H1008.94L1036.09 525.903L1063.21 510.224L1045.12 541.602ZM794.048 541.602H757.865L793.239 521.151L812.139 510.224L794.048 541.602ZM691.517 148.713L709.6 180.076L691.517 211.438V148.713ZM794.048 181.388L812.131 212.75L757.883 181.388H794.048ZM919.585 181.388L937.668 212.75L883.42 181.388H919.585ZM1045.12 181.388L1063.2 212.75L1008.96 181.388H1045.12ZM817.055 148.713L835.137 180.076L817.055 211.438V148.713ZM942.592 148.713L960.674 180.076L942.592 211.439V148.713ZM919.585 469.034H883.403L903.363 457.494L937.676 437.657L919.585 469.034ZM794.048 469.034H757.865L774.612 459.352L812.139 437.657L794.048 469.034ZM695.114 290.244H731.279L749.362 321.607L737.662 314.843L695.114 290.244ZM794.048 253.955L812.131 285.318L757.883 253.955H794.048ZM919.585 253.955L937.668 285.318L883.42 253.955H919.585ZM919.585 396.466H883.403L903.363 384.926L937.676 365.089L919.585 396.466ZM774.638 290.244H810.837L768.29 314.843L756.538 321.637L774.638 290.244ZM999.16 323.899H962.944L944.835 292.491L958.479 300.379L999.16 323.899ZM999.16 396.466H962.944L944.835 365.059L988.38 390.234L999.16 396.466ZM794.048 396.466H757.865L774.612 386.785L812.139 365.089L794.048 396.466ZM939.971 356.633L921.854 325.211L939.971 293.789V356.633ZM919.585 323.899H883.403L937.676 292.522L919.585 323.899ZM837.406 326.523H873.606L819.307 357.915L837.406 326.523ZM856.816 360.188H820.617L874.916 328.795L856.816 360.188ZM856.816 362.812L874.899 394.174L820.651 362.812H856.816ZM859.086 361.5L877.194 330.092V392.907L859.086 361.5ZM837.406 323.899L819.298 292.491L873.623 323.899H837.406ZM817.055 293.848L835.137 325.211L817.055 356.574V293.848ZM814.434 356.633L796.317 325.211L814.434 293.788V356.633ZM817.055 366.416L835.137 397.778L817.055 429.141V366.416ZM837.406 396.466L819.298 365.059L861.258 389.318L873.623 396.466H837.406ZM919.585 326.523L937.668 357.886L883.42 326.523H919.585ZM942.592 293.848L960.674 325.211L942.592 356.574V293.848ZM877.194 320.339L859.086 288.932L877.194 257.524V320.339ZM856.816 290.244L874.899 321.607L858.631 312.201L820.651 290.244H856.816ZM812.139 292.522L794.048 323.899H757.865L812.139 292.522ZM794.048 326.523L812.131 357.886L757.883 326.523H794.048ZM814.434 366.356V429.201L796.317 397.778L814.434 366.356ZM837.406 399.09H873.606L819.307 430.483L837.406 399.09ZM879.832 330.152L897.906 361.5L879.832 392.847V330.152ZM900.175 360.188L882.058 328.765L936.409 360.188H900.175ZM962.944 326.523H999.144L944.844 357.915L962.944 326.523ZM892.175 315.797L882.075 321.637L900.175 290.244H936.375L892.175 315.797ZM879.832 320.28V257.585L897.906 288.932L879.832 320.28ZM856.816 287.62H820.617L874.916 256.228L856.816 287.62ZM810.872 360.188H774.638L756.521 328.765L810.872 360.188ZM774.638 362.812H810.838L756.538 394.204L774.638 362.812ZM794.048 399.09L812.131 430.453L757.883 399.09H794.048ZM874.916 401.363L856.816 432.755H820.617L874.916 401.363ZM877.194 402.66V465.475L859.086 434.067L877.194 402.66ZM882.075 394.204L900.175 362.812H936.375L923.351 370.341L882.075 394.204ZM942.592 366.416L960.674 397.778L942.592 429.141V366.416ZM962.944 399.09H999.144L944.844 430.483L962.944 399.09ZM946.189 362.812H982.354L1000.44 394.174L946.189 362.812ZM982.354 360.188H946.154L1000.45 328.795L982.354 360.188ZM980.817 310.264L946.189 290.244H982.354L1000.44 321.607L980.817 310.264ZM982.354 287.62H946.154L1000.45 256.228L982.354 287.62ZM900.175 287.62L882.058 256.198L936.409 287.62H900.175ZM819.307 285.348L837.406 253.955H873.606L819.307 285.348ZM817.055 284.006V221.281L835.137 252.643L817.055 284.006ZM774.638 287.62L756.521 256.198L810.872 287.62H774.638ZM772.369 288.932L754.295 320.28V257.584L772.369 288.932ZM772.369 361.5L754.295 392.847V330.152L772.369 361.5ZM774.638 432.755L756.521 401.333L810.872 432.755H774.638ZM772.369 434.067L754.295 465.415V402.72L772.369 434.067ZM856.816 435.379L874.899 466.742L820.651 435.379H856.816ZM939.971 366.356V429.201L921.854 397.778L939.971 366.356ZM1000.45 401.363L982.354 432.755H946.154L1000.45 401.363ZM1002.73 402.66V465.475L984.623 434.067L1002.73 402.66ZM984.623 361.5L1002.73 330.092V392.907L984.623 361.5ZM984.623 288.932L1002.73 257.524V320.339L984.623 288.932ZM944.844 285.348L962.944 253.955H999.144L944.844 285.348ZM942.592 284.006V221.281L960.674 252.643L942.592 284.006ZM939.971 284.066L921.854 252.643L939.971 221.221V284.066ZM837.406 251.331L819.298 219.924L873.623 251.331H837.406ZM814.434 284.066L796.317 252.643L814.434 221.221V284.066ZM774.638 435.379H810.838L756.538 466.772L774.638 435.379ZM919.585 399.09L937.668 430.453L883.42 399.09H919.585ZM982.354 435.379L1000.44 466.742L946.189 435.379H982.354ZM999.16 251.331H962.944L944.835 219.924L958.479 227.812L999.16 251.331ZM919.585 251.331H883.403L937.676 219.954L919.585 251.331ZM794.048 251.331H757.865L812.139 219.954L794.048 251.331ZM817.055 438.984L835.137 470.346L817.055 501.709V438.984ZM837.406 469.034L819.298 437.627L861.258 461.885L873.623 469.034H837.406ZM879.832 402.72L897.906 434.067L879.832 465.415V402.72ZM900.175 432.755L882.058 401.333L936.409 432.755H900.175ZM1002.73 247.772L984.623 216.364L1002.73 184.957V247.772ZM982.354 217.676L1000.44 249.039L980.817 237.696L946.189 217.676H982.354ZM877.194 247.772L859.086 216.364L877.194 184.957V247.772ZM856.816 217.676L874.899 249.039L858.631 239.634L820.651 217.676H856.816ZM751.657 320.339L733.548 288.932L751.657 257.525V320.339ZM751.657 392.907L733.548 361.5L751.657 330.092V392.907ZM731.279 362.812L749.362 394.174L695.114 362.812H731.279ZM751.657 465.475L733.548 434.067L751.657 402.66V465.475ZM731.279 435.379L749.362 466.742L695.114 435.379H731.279ZM814.434 438.924V501.768L796.317 470.346L814.434 438.924ZM837.406 471.658H873.606L819.307 503.051L837.406 471.658ZM882.075 466.772L900.175 435.379H936.375L923.351 442.909L882.075 466.772ZM942.592 438.984L960.674 470.346L942.592 501.709V438.984ZM962.944 469.034L944.835 437.627L988.38 462.801L999.161 469.034H962.944ZM1025.71 435.379H1061.91L1007.61 466.772L1025.71 435.379ZM1005.37 465.415V402.72L1023.44 434.067L1005.37 465.415ZM1025.71 362.812H1061.91L1007.61 394.204L1025.71 362.812ZM1005.37 392.847V330.152L1023.44 361.5L1005.37 392.847ZM1005.37 257.585L1023.44 288.932L1005.37 320.28V257.585ZM1005.37 185.017L1023.44 216.364L1005.37 247.712V185.017ZM982.354 215.053H946.154L1000.45 183.66L982.354 215.053ZM892.175 243.23L882.075 249.069L900.175 217.676H936.375L892.175 243.23ZM879.832 247.712V185.017L897.906 216.364L879.832 247.712ZM856.816 215.053H820.617L874.916 183.66L856.816 215.053ZM768.29 242.275L756.538 249.069L774.638 217.676H810.837L768.29 242.275ZM754.295 247.712V185.017L772.369 216.364L754.295 247.712ZM751.657 247.772L733.548 216.364L751.657 184.957V247.772ZM731.279 217.676L749.362 249.039L737.662 242.275L695.114 217.676H731.279ZM731.279 287.62H695.079L749.379 256.228L731.279 287.62ZM731.279 360.188H695.079L749.379 328.795L731.279 360.188ZM731.279 432.755H695.079L749.379 401.363L731.279 432.755ZM731.279 505.323H695.079L749.379 473.93L731.279 505.323ZM751.657 475.228V538.042L733.548 506.635L751.657 475.228ZM794.048 471.658L812.131 503.02L757.883 471.658H794.048ZM874.916 473.93L856.816 505.323H820.617L874.916 473.93ZM877.194 475.228V538.042L859.086 506.635L877.194 475.228ZM939.971 438.924V501.768L921.854 470.346L939.971 438.924ZM962.944 471.658H999.143L944.844 503.051L962.944 471.658ZM1025.71 432.755L1007.6 401.333L1061.95 432.755H1025.71ZM1025.71 360.188L1007.6 328.765L1061.95 360.188H1025.71ZM1007.61 321.637L1025.71 290.244H1061.91L1021.41 313.662L1007.61 321.637ZM1025.71 287.62L1007.6 256.198L1061.95 287.62H1025.71ZM1007.61 249.069L1025.71 217.676H1061.91L1021.41 241.094L1007.61 249.069ZM1025.71 215.053L1007.6 183.63L1061.95 215.053H1025.71ZM944.844 212.78L962.944 181.388H999.144L944.844 212.78ZM900.175 215.053L882.058 183.63L936.409 215.053H900.175ZM819.307 212.78L837.406 181.388H873.606L819.307 212.78ZM774.638 215.053L756.521 183.63L810.872 215.053H774.638ZM731.279 215.053H695.079L749.379 183.66L731.279 215.053ZM748.086 251.331H711.869L693.761 219.924L748.086 251.331ZM711.869 253.955H748.069L693.769 285.348L711.869 253.955ZM748.086 323.899H711.869L693.761 292.491L748.086 323.899ZM711.869 326.523H748.069L693.769 357.915L711.869 326.523ZM731.34 386.785L748.086 396.466H711.869L693.761 365.059L731.34 386.785ZM711.869 399.09H748.069L693.769 430.483L711.869 399.09ZM731.34 459.352L748.086 469.034H711.869L693.761 437.627L731.34 459.352ZM711.869 471.658H748.069L693.769 503.051L711.869 471.658ZM695.114 507.947H731.279L749.362 539.31L727.825 526.858L695.114 507.947ZM754.295 475.287L772.369 506.635L754.295 537.982V475.287ZM774.638 505.323L756.521 473.901L810.872 505.323H774.638ZM820.651 507.947H856.816L874.899 539.309L839.21 518.676L820.651 507.947ZM919.585 471.658L937.668 503.02L883.42 471.658H919.585ZM1000.45 473.93L982.354 505.323H946.154L1000.45 473.93ZM1002.73 475.228V538.042L984.623 506.635L1002.73 475.228ZM1005.37 475.287L1023.44 506.635L1005.37 537.982V475.287ZM1025.71 505.323L1007.59 473.9L1061.95 505.323H1025.71ZM1008.96 471.658H1045.12L1063.2 503.02L1008.96 471.658ZM1045.12 469.034H1008.94L1023.26 460.753L1063.21 437.657L1045.12 469.034ZM1008.96 399.09H1045.12L1063.2 430.453L1008.96 399.09ZM1045.12 396.466H1008.94L1023.26 388.186L1063.21 365.089L1045.12 396.466ZM1008.96 326.523H1045.12L1063.2 357.886L1008.96 326.523ZM1045.12 323.899H1008.94L1063.21 292.522L1045.12 323.899ZM1008.96 253.955H1045.12L1063.2 285.318L1008.96 253.955ZM1045.12 251.331H1008.94L1063.21 219.954L1045.12 251.331ZM999.16 178.764H962.944L944.835 147.356L981.155 168.354L999.16 178.764ZM939.971 211.498L921.854 180.076L939.971 148.653V211.498ZM873.623 178.764H837.406L819.298 147.356L851.824 166.161L873.623 178.764ZM814.434 211.498L796.317 180.076L814.434 148.653V211.498ZM693.769 212.78L711.869 181.388H748.069L693.769 212.78ZM691.517 221.281L709.6 252.643L691.517 284.006V221.281ZM691.517 293.848L709.6 325.211L691.517 356.574V293.848ZM691.517 366.416L709.6 397.778L691.517 429.141V366.416ZM691.517 438.984L709.6 470.346L691.517 501.709V438.984ZM691.517 511.551L709.6 542.914L691.517 574.276V511.551ZM711.869 541.602L693.761 510.194L712.713 521.151L748.086 541.602H711.869ZM756.538 539.339L774.638 507.947H810.837L778.127 526.858L756.538 539.339ZM817.055 511.551L835.137 542.914L817.055 574.276V511.551ZM837.406 541.602L819.298 510.194L851.824 528.999L873.623 541.602H837.406ZM879.832 475.287L897.906 506.635L879.832 537.982V475.287ZM900.175 505.323L882.058 473.9L936.409 505.323H900.175ZM946.189 507.947H982.354L1000.44 539.309L949.737 509.998L946.189 507.947ZM1007.61 539.339L1025.71 507.947H1061.91L1034.78 523.631L1007.61 539.339ZM1047.39 470.346L1065.51 438.924V501.769L1047.39 470.346ZM1047.39 397.778L1065.51 366.356V429.201L1047.39 397.778ZM1047.39 325.211L1065.51 293.788V356.633L1047.39 325.211ZM1047.39 252.643L1065.51 221.221V284.066L1047.39 252.643ZM1047.39 180.076L1065.51 148.653V211.498L1047.39 180.076ZM1063.21 147.386L1045.12 178.764H1008.94L1036.09 163.065L1063.21 147.386ZM1002.73 175.204L984.623 143.797L1002.73 112.389V175.204ZM982.354 145.109L1000.44 176.472L949.737 147.16L946.188 145.109H982.354ZM937.676 147.386L919.585 178.764H883.403L933.172 149.991L937.676 147.386ZM877.194 175.204L859.086 143.797L877.194 112.389V175.204ZM856.816 145.109L874.899 176.472L839.21 155.838L820.651 145.109H856.816ZM812.139 147.386L794.048 178.764H757.865L793.239 158.313L812.139 147.386ZM748.086 178.764H711.869L693.761 147.356L712.713 158.313L748.086 178.764ZM688.897 211.498L670.78 180.076L688.897 148.653V211.498ZM688.897 284.066L670.78 252.643L688.897 221.221V284.066ZM688.897 356.633L670.78 325.211L688.897 293.788V356.633ZM688.897 429.201L670.78 397.778L688.897 366.356V429.201ZM688.897 501.768L670.78 470.346L688.897 438.924V501.768ZM688.897 574.336L670.78 542.914L688.897 511.491V574.336ZM711.869 544.226H748.069L693.769 575.618L711.869 544.226ZM814.434 511.491V574.336L796.317 542.914L814.434 511.491ZM837.406 544.226H873.606L819.307 575.618L837.406 544.226ZM882.075 539.339L900.175 507.947H936.375L899.708 529.145L882.075 539.339ZM942.592 511.551L960.674 542.914L942.592 574.276V511.551ZM962.944 541.602L944.835 510.194L981.155 531.192L999.16 541.602H962.944ZM1065.51 511.491V574.336L1047.39 542.914L1065.51 511.491ZM1068.13 511.551L1086.21 542.914L1068.13 574.276V511.551ZM1068.13 438.984L1086.21 470.346L1068.13 501.709V438.984ZM1068.13 366.416L1086.21 397.778L1068.13 429.141V366.416ZM1068.13 293.848L1086.21 325.211L1068.13 356.574V293.848ZM1068.13 221.281L1086.21 252.643L1068.13 284.006V221.281ZM1068.13 148.713L1086.21 180.076L1068.13 211.438V148.713ZM1034.78 160.793L1007.61 176.501L1025.71 145.109H1061.91L1034.78 160.793ZM1005.37 175.145V112.449L1023.44 143.797L1005.37 175.145ZM982.354 142.485H946.154L1000.45 111.092L982.354 142.485ZM899.708 166.307L882.075 176.501L900.175 145.109H936.375L899.708 166.307ZM879.832 175.145V112.449L897.906 143.797L879.832 175.145ZM856.816 142.485H820.617L874.916 111.092L856.816 142.485ZM778.127 164.02L756.538 176.501L774.638 145.109H810.838L778.127 164.02ZM754.295 175.145V112.449L772.369 143.797L754.295 175.145ZM751.657 175.204L733.548 143.797L751.657 112.389V175.204ZM731.279 145.109L749.362 176.472L727.825 164.02L695.114 145.109H731.279ZM668.511 181.388L686.593 212.751L632.345 181.388H668.511ZM686.602 219.954L668.511 251.331H632.328L686.602 219.954ZM668.511 253.955L686.593 285.318L632.345 253.955H668.511ZM686.602 292.522L668.511 323.899H632.328L686.602 292.522ZM668.511 326.523L686.593 357.886L632.345 326.523H668.511ZM668.511 399.09L686.593 430.453L632.345 399.09H668.511ZM668.511 471.658L686.593 503.02L632.346 471.658H668.511ZM668.511 544.226L686.593 575.588L632.345 544.226H668.511ZM749.379 546.498L731.279 577.891H695.079L749.379 546.498ZM751.657 547.795V610.61L733.548 579.203L751.657 547.795ZM794.048 544.226L812.131 575.588L757.883 544.226H794.048ZM874.916 546.498L856.816 577.891H820.617L874.916 546.498ZM877.194 547.795V610.61L859.086 579.203L877.194 547.795ZM939.971 511.491V574.336L921.854 542.914L939.971 511.491ZM962.944 544.226H999.144L944.844 575.618L962.944 544.226ZM1045.12 544.226L1063.2 575.588L1008.96 544.226H1045.12ZM1088.48 544.226H1124.68L1070.38 575.618L1088.48 544.226ZM1088.48 471.658H1124.68L1070.38 503.051L1088.48 471.658ZM1088.48 399.09H1124.68L1070.38 430.483L1088.48 399.09ZM1088.48 326.523H1124.68L1070.38 357.915L1088.48 326.523ZM1088.48 323.899L1070.37 292.491L1124.7 323.899H1088.48ZM1088.48 253.955H1124.68L1070.38 285.348L1088.48 253.955ZM1088.48 251.331L1070.37 219.924L1124.7 251.331H1088.48ZM1088.48 181.388H1124.68L1070.38 212.78L1088.48 181.388ZM1025.71 142.485L1007.59 111.062L1061.95 142.485H1025.71ZM944.844 140.213L962.944 108.82H999.143L944.844 140.213ZM900.175 142.485L882.058 111.062L936.409 142.485H900.175ZM819.307 140.213L837.406 108.82H873.606L819.307 140.213ZM774.638 142.485L756.521 111.062L810.872 142.485H774.638ZM731.279 142.485H695.079L749.379 111.092L731.279 142.485ZM688.897 138.931L670.78 107.508L688.897 76.0859V138.931ZM685.335 142.485H649.101L630.984 111.062L685.335 142.485ZM649.101 145.109H685.301L666.742 155.838L631.001 176.501L649.101 145.109ZM685.335 215.053H649.101L630.984 183.63L685.335 215.053ZM649.101 217.676H685.3L647.321 239.634L631.001 249.069L649.101 217.676ZM685.335 287.62H649.101L630.984 256.198L685.335 287.62ZM649.101 290.244H685.3L647.321 312.201L631.001 321.637L649.101 290.244ZM685.335 360.188H649.101L630.984 328.765L685.335 360.188ZM649.101 362.812H685.3L631.001 394.204L649.101 362.812ZM685.335 432.755H649.101L630.984 401.333L685.335 432.755ZM649.101 435.379H685.3L631.001 466.772L649.101 435.379ZM685.335 505.323H649.101L630.983 473.901L685.335 505.323ZM649.101 507.947H685.3L666.742 518.676L631.001 539.339L649.101 507.947ZM695.114 580.514H731.279L749.362 611.877L737.662 605.113L695.114 580.514ZM754.295 547.855L772.369 579.203L754.295 610.55V547.855ZM774.638 577.891L756.521 546.468L810.872 577.891H774.638ZM820.651 580.514H856.816L874.899 611.877L858.631 602.472L820.651 580.514ZM919.585 544.226L937.668 575.588L883.42 544.226H919.585ZM1000.45 546.498L982.354 577.891H946.154L1000.45 546.498ZM1002.73 547.795V610.61L984.623 579.203L1002.73 547.795ZM1005.37 547.855L1023.44 579.203L1005.37 610.55V547.855ZM1025.71 577.891L1007.6 546.468L1061.95 577.891H1025.71ZM1107.89 577.891H1071.69L1125.99 546.498L1107.89 577.891ZM1098.85 523.631L1071.73 507.947H1107.89L1125.97 539.309L1098.85 523.631ZM1107.89 505.323H1071.69L1125.99 473.93L1107.89 505.323ZM1071.73 435.379H1107.89L1125.97 466.742L1071.73 435.379ZM1107.89 432.755H1071.69L1125.99 401.363L1107.89 432.755ZM1071.73 362.812H1107.89L1125.97 394.174L1071.73 362.812ZM1107.89 360.188H1071.69L1125.99 328.795L1107.89 360.188ZM1112.23 313.662L1071.73 290.244H1107.89L1125.97 321.607L1112.23 313.662ZM1107.89 287.62H1071.69L1125.99 256.228L1107.89 287.62ZM1112.23 241.094L1071.73 217.676H1107.89L1125.97 249.039L1112.23 241.094ZM1107.89 215.053H1071.69L1125.99 183.66L1107.89 215.053ZM1098.85 160.793L1071.73 145.109H1107.89L1125.97 176.472L1098.85 160.793ZM1107.89 142.485H1071.69L1125.99 111.092L1107.89 142.485ZM1070.38 140.213L1088.48 108.82H1124.68L1070.38 140.213ZM1068.13 138.871V76.1458L1086.21 107.508L1068.13 138.871ZM1065.51 138.931L1047.39 107.508L1065.51 76.0856V138.931ZM999.161 106.196H962.944L944.835 74.7886L981.057 95.7301L999.161 106.196ZM939.971 138.93L921.854 107.508L939.971 76.0859V138.93ZM873.623 106.196H837.406L819.298 74.7886L851.757 93.5547L873.623 106.196ZM814.434 138.931L796.317 107.508L814.434 76.0859V138.931ZM693.769 140.213L711.869 108.82H748.069L693.769 140.213ZM691.517 138.871V76.1454L709.6 107.508L691.517 138.871ZM686.602 74.8187L668.511 106.196H632.328L654.195 93.5547L686.602 74.8187ZM646.831 143.797L628.757 175.145V112.449L646.831 143.797ZM646.831 216.364L628.757 247.712V185.017L646.831 216.364ZM646.831 288.932L628.757 320.28V257.584L646.831 288.932ZM646.831 361.5L628.757 392.847V330.152L646.831 361.5ZM646.831 434.067L628.757 465.415V402.72L646.831 434.067ZM646.831 506.635L628.757 537.982V475.287L646.831 506.635ZM646.831 579.203L628.757 610.55V547.855L646.831 579.203ZM631.001 611.907L649.101 580.514H685.3L647.321 602.472L631.001 611.907ZM756.538 611.907L774.638 580.514H810.837L768.29 605.113L756.538 611.907ZM879.832 547.855L897.906 579.203L879.832 610.55V547.855ZM900.175 577.891L882.058 546.468L936.409 577.891H900.175ZM946.189 580.514H982.354L1000.44 611.877L980.817 600.534L946.189 580.514ZM1007.61 611.907L1025.71 580.514H1061.91L1021.41 603.932L1007.61 611.907ZM1110.16 579.203L1128.27 547.795V610.61L1110.16 579.203ZM1110.16 506.635L1128.27 475.228V538.042L1110.16 506.635ZM1110.16 434.067L1128.27 402.66V465.475L1110.16 434.067ZM1110.16 361.5L1128.27 330.092V392.907L1110.16 361.5ZM1110.16 288.932L1128.27 257.524V320.339L1110.16 288.932ZM1110.16 216.364L1128.27 184.957V247.772L1110.16 216.364ZM1110.16 143.797L1128.27 112.389V175.204L1110.16 143.797ZM1124.7 106.196H1088.48L1070.37 74.7886L1097.54 90.4974L1124.7 106.196ZM1063.21 74.8187L1045.12 106.196H1008.94L1036.09 90.4974L1063.21 74.8187ZM937.676 74.8185L919.585 106.196H883.403L932.585 77.7617L937.676 74.8185ZM812.139 74.8187L794.048 106.196H757.865L793.083 85.8358L812.139 74.8187ZM748.086 106.196H711.869L693.761 74.7886L712.869 85.8358L748.086 106.196ZM691.517 584.118L709.6 615.481L691.517 646.844V584.118ZM711.869 614.169L693.761 582.762L748.086 614.169H711.869ZM817.055 584.118L835.137 615.481L817.055 646.844V584.118ZM837.406 614.169L819.298 582.762L873.623 614.169H837.406ZM882.075 611.907L900.175 580.514H936.375L892.175 606.068L882.075 611.907ZM1088.48 614.169L1070.37 582.762L1124.7 614.169H1088.48ZM1086.21 615.481L1068.13 646.844V584.119L1086.21 615.481ZM1002.73 102.637L984.623 71.2295L1002.73 39.822V102.637ZM982.354 72.5415L1000.44 103.904L946.189 72.5415H982.354ZM877.194 102.637L859.086 71.2295L877.194 39.822V102.637ZM856.816 72.5415L874.899 103.904L820.651 72.5415H856.816ZM631.001 103.934L649.101 72.5415H685.3L631.001 103.934ZM628.757 102.577V39.8816L646.831 71.2295L628.757 102.577ZM688.897 584.059V646.904L670.78 615.481L688.897 584.059ZM711.869 616.793H748.069L693.769 648.186L711.869 616.793ZM814.434 584.059V646.904L796.317 615.481L814.434 584.059ZM837.406 616.793H873.606L819.307 648.186L837.406 616.793ZM942.592 584.118L960.674 615.481L942.592 646.844V584.118ZM962.944 616.793H999.144L944.844 648.186L962.944 616.793ZM1065.51 584.059V646.904L1047.39 615.481L1065.51 584.059ZM1088.48 616.793H1124.68L1070.38 648.186L1088.48 616.793ZM1130.91 402.72L1148.98 434.067L1130.91 465.415V402.72ZM1130.91 330.152L1148.98 361.5L1130.91 392.847V330.152ZM1130.91 39.8816L1148.98 71.2295L1130.91 102.577V39.8816ZM1128.27 102.637L1110.16 71.2295L1128.27 39.822V102.637ZM1107.89 72.5415L1125.97 103.904L1071.73 72.5415H1107.89ZM1007.61 103.934L1025.71 72.5415H1061.91L1007.61 103.934ZM1005.37 102.577V39.8819L1023.44 71.2295L1005.37 102.577ZM982.354 69.9176H946.154L1000.45 38.5248L982.354 69.9176ZM882.075 103.934L900.175 72.5415H936.375L882.075 103.934ZM879.832 102.577V39.8819L897.906 71.2295L879.832 102.577ZM856.816 69.9176H820.617L874.916 38.5248L856.816 69.9176ZM756.538 103.934L774.638 72.5415H810.837L756.538 103.934ZM754.295 102.577V39.8816L772.369 71.2295L754.295 102.577ZM751.657 102.637L733.548 71.2295L751.657 39.822V102.637ZM731.279 72.5415L749.362 103.904L695.114 72.5415H731.279ZM649.101 69.9176L630.984 38.495L685.335 69.9176H649.101ZM626.12 102.637L608.011 71.2295L626.12 39.822V102.637ZM605.742 72.5415L623.825 103.904L569.577 72.5415H605.742ZM626.12 175.204L608.011 143.797L626.12 112.389V175.204ZM626.12 247.772L608.011 216.364L626.12 184.957V247.772ZM626.12 320.339L608.011 288.932L626.12 257.524V320.339ZM626.12 392.907L608.011 361.5L626.12 330.092V392.907ZM605.742 362.812L623.825 394.174L569.577 362.812H605.742ZM626.12 465.475L608.011 434.067L626.12 402.66V465.475ZM605.742 435.379L623.825 466.742L569.577 435.379H605.742ZM626.12 538.042L608.011 506.635L626.12 475.228V538.042ZM626.12 610.61L608.011 579.203L626.12 547.795V610.61ZM626.12 683.178L608.011 651.77L626.12 620.363V683.178ZM668.511 616.793L686.593 648.156L632.345 616.793H668.511ZM749.379 619.066L731.279 650.458H695.079L749.379 619.066ZM751.657 620.363V683.178L733.548 651.77L751.657 620.363ZM794.048 616.793L812.131 648.156L757.883 616.793H794.048ZM874.916 619.066L856.816 650.458H820.617L874.916 619.066ZM877.194 620.363V683.178L859.086 651.77L877.194 620.363ZM939.971 584.059V646.904L921.854 615.481L939.971 584.059ZM1000.45 619.066L982.354 650.458H946.154L1000.45 619.066ZM1002.73 620.363V683.178L984.623 651.77L1002.73 620.363ZM1045.12 616.793L1063.2 648.156L1008.96 616.793H1045.12ZM1125.99 619.066L1107.89 650.458H1071.69L1125.99 619.066ZM1128.27 620.363V683.178L1110.16 651.77L1128.27 620.363ZM1130.91 547.855L1148.98 579.203L1130.91 610.55V547.855ZM1151.25 577.891L1133.13 546.468L1187.48 577.891H1151.25ZM1130.91 475.287L1148.98 506.635L1130.91 537.983V475.287ZM1151.25 505.323L1133.13 473.901L1187.48 505.323H1151.25ZM1151.25 435.379H1187.45L1133.15 466.772L1151.25 435.379ZM1151.25 432.755L1133.13 401.333L1187.48 432.755H1151.25ZM1151.25 362.812H1187.45L1133.15 394.204L1151.25 362.812ZM1151.25 360.188L1133.13 328.765L1187.48 360.188H1151.25ZM1130.91 257.584L1148.98 288.932L1130.91 320.28V257.584ZM1151.25 287.62L1133.13 256.198L1187.48 287.62H1151.25ZM1130.91 185.017L1148.98 216.364L1130.91 247.712V185.017ZM1151.25 215.053L1133.13 183.63L1187.48 215.053H1151.25ZM1130.91 112.449L1148.98 143.797L1130.91 175.145V112.449ZM1151.25 142.485L1133.13 111.062L1187.48 142.485H1151.25ZM1151.25 72.5415H1187.45L1133.15 103.934L1151.25 72.5415ZM1151.25 69.9176L1133.13 38.495L1187.48 69.9176H1151.25ZM1107.89 69.9176H1071.69L1125.99 38.5248L1107.89 69.9176ZM1025.71 69.9176L1007.59 38.495L1061.95 69.9176H1025.71ZM944.844 67.645L962.944 36.2526H999.144L944.844 67.645ZM900.175 69.9176L882.058 38.495L936.409 69.9176H900.175ZM819.307 67.645L837.406 36.2526H873.606L819.307 67.645ZM774.638 69.9176L756.521 38.495L810.872 69.9176H774.638ZM731.279 69.9176H695.079L749.379 38.5248L731.279 69.9176ZM688.897 66.3632L670.78 34.9407L688.897 3.51806V66.3632ZM605.742 69.9176H569.542L623.842 38.5248L605.742 69.9176ZM605.742 142.485H569.542L623.842 111.092L605.742 142.485ZM569.577 145.109H605.742L623.825 176.472L588.135 155.838L569.577 145.109ZM605.742 215.053H569.542L623.842 183.66L605.742 215.053ZM605.742 287.62H569.542L623.842 256.228L605.742 287.62ZM605.742 360.188H569.542L623.842 328.795L605.742 360.188ZM605.742 432.755H569.542L623.842 401.363L605.742 432.755ZM605.742 505.323H569.542L623.842 473.93L605.742 505.323ZM569.577 507.947H605.742L623.825 539.309L588.135 518.676L569.577 507.947ZM605.742 577.891H569.542L623.842 546.498L605.742 577.891ZM605.742 650.458H569.542L623.842 619.066L605.742 650.458ZM605.742 653.082L623.825 684.445L569.577 653.082H605.742ZM628.757 620.422L646.831 651.77L628.757 683.118V620.422ZM649.101 650.458L630.984 619.036L685.335 650.458H649.101ZM731.279 653.082L749.362 684.445L695.114 653.082H731.279ZM754.295 620.422L772.369 651.77L754.295 683.118V620.422ZM774.638 650.458L756.521 619.036L810.872 650.458H774.638ZM856.816 653.082L874.899 684.445L820.651 653.082H856.816ZM919.585 616.793L937.668 648.156L883.42 616.793H919.585ZM982.354 653.082L1000.44 684.445L946.189 653.082H982.354ZM1005.37 620.422L1023.44 651.77L1005.37 683.118V620.422ZM1025.71 650.458L1007.6 619.036L1061.95 650.458H1025.71ZM1107.89 653.082L1125.97 684.445L1071.73 653.082H1107.89ZM1130.91 620.422L1148.98 651.77L1130.91 683.118V620.422ZM1151.25 650.458L1133.13 619.036L1187.48 650.458H1151.25ZM1133.15 611.907L1151.25 580.514H1187.45L1146.94 603.932L1133.15 611.907ZM1133.15 539.339L1151.25 507.947H1187.45L1160.32 523.631L1133.15 539.339ZM1133.15 321.637L1151.25 290.244H1187.45L1146.94 313.662L1133.15 321.637ZM1133.15 249.069L1151.25 217.676H1187.45L1146.94 241.094L1133.15 249.069ZM1133.15 176.501L1151.25 145.109H1187.45L1160.32 160.793L1133.15 176.501ZM1070.38 67.645L1088.48 36.2526H1124.68L1070.38 67.645ZM1068.13 66.3033V3.57795L1086.21 34.9407L1068.13 66.3033ZM1065.51 66.3632L1047.39 34.9407L1065.51 3.51806V66.3632ZM962.944 33.6287L944.835 2.2212L999.161 33.6287H962.944ZM939.971 66.3629L921.854 34.9407L939.971 3.51806V66.3629ZM837.406 33.6287L819.298 2.2212L873.623 33.6287H837.406ZM814.434 66.3632L796.317 34.9407L814.434 3.51806V66.3632ZM693.769 67.645L711.869 36.2526H748.069L693.769 67.645ZM691.517 66.3033V3.57795L709.6 34.9407L691.517 66.3033ZM668.511 33.6287H632.328L686.602 2.25099L668.511 33.6287ZM586.332 33.6287L568.224 2.2212L622.549 33.6287H586.332ZM586.332 36.2526H622.532L568.232 67.645L586.332 36.2526ZM600.683 93.5547L622.549 106.196H586.332L568.224 74.7886L600.683 93.5547ZM586.332 108.82H622.532L568.232 140.213L586.332 108.82ZM600.749 166.161L622.549 178.764H586.332L568.224 147.356L600.749 166.161ZM586.332 181.388H622.532L568.232 212.78L586.332 181.388ZM622.549 251.331H586.332L568.224 219.924L622.549 251.331ZM586.332 253.955H622.532L568.232 285.348L586.332 253.955ZM622.549 323.899H586.332L568.224 292.491L622.549 323.899ZM586.332 326.523H622.532L568.232 357.915L586.332 326.523ZM610.184 389.318L622.549 396.466H586.332L568.224 365.059L610.184 389.318ZM586.332 399.09H622.532L568.232 430.483L586.332 399.09ZM610.184 461.885L622.549 469.034H586.332L568.224 437.627L610.184 461.885ZM586.332 471.658H622.532L568.232 503.051L586.332 471.658ZM600.749 528.999L622.549 541.602H586.332L568.224 510.194L600.749 528.999ZM586.332 544.226H622.532L568.232 575.618L586.332 544.226ZM622.549 614.169H586.332L568.224 582.762L622.549 614.169ZM586.332 616.793H622.532L568.232 648.186L586.332 616.793ZM649.101 653.082H685.3L631.001 684.474L649.101 653.082ZM774.638 653.082H810.838L756.538 684.474L774.638 653.082ZM879.832 620.422L897.906 651.77L879.832 683.118V620.422ZM900.175 650.458L882.058 619.036L936.409 650.458H900.175ZM1025.71 653.082H1061.91L1007.61 684.474L1025.71 653.082ZM1151.25 653.082H1187.45L1133.15 684.474L1151.25 653.082ZM1172.93 615.481L1191.05 584.059V646.904L1172.93 615.481ZM1170.66 614.169H1134.48L1188.75 582.792L1170.66 614.169ZM1172.93 542.914L1191.05 511.491V574.336L1172.93 542.914ZM1170.66 541.602H1134.48L1161.63 525.903L1188.75 510.224L1170.66 541.602ZM1172.93 470.346L1191.05 438.924V501.769L1172.93 470.346ZM1170.66 469.034H1134.48L1148.8 460.753L1188.75 437.657L1170.66 469.034ZM1172.93 397.778L1191.05 366.356V429.201L1172.93 397.778ZM1170.66 396.466H1134.48L1148.8 388.186L1188.75 365.089L1170.66 396.466ZM1172.93 325.211L1191.05 293.788V356.633L1172.93 325.211ZM1170.66 323.899H1134.48L1188.75 292.522L1170.66 323.899ZM1172.93 252.643L1191.05 221.221V284.066L1172.93 252.643ZM1170.66 251.331H1134.48L1188.75 219.954L1170.66 251.331ZM1172.93 180.076L1191.05 148.653V211.498L1172.93 180.076ZM1170.66 178.764H1134.48L1161.63 163.065L1188.75 147.386L1170.66 178.764ZM1172.93 107.508L1191.05 76.0856V138.931L1172.93 107.508ZM1170.66 106.196H1134.48L1161.63 90.4974L1188.75 74.8187L1170.66 106.196ZM1172.93 34.9407L1191.05 3.51806V66.3632L1172.93 34.9407ZM1124.7 33.6287H1088.48L1070.37 2.2212L1097.54 17.9299L1124.7 33.6287ZM1063.21 2.25099L1045.12 33.6287H1008.94L1036.09 17.9299L1063.21 2.25099ZM937.676 2.25099L919.585 33.6287H883.403L895.709 26.5139L937.676 2.25099ZM812.139 2.25099L794.048 33.6287H757.865L775.165 23.6271L812.139 2.25099ZM748.086 33.6287H711.869L693.761 2.2212L730.787 23.6271L748.086 33.6287ZM565.98 3.57795L584.063 34.9407L565.98 66.3033V3.57795ZM565.98 76.1454L584.063 107.508L565.98 138.871V76.1454ZM565.98 148.713L584.063 180.076L565.98 211.438V148.713ZM565.98 221.281L584.063 252.643L565.98 284.006V221.281ZM565.98 293.848L584.063 325.211L565.98 356.574V293.848ZM565.98 366.416L584.063 397.778L565.98 429.141V366.416ZM565.98 438.984L584.063 470.346L565.98 501.709V438.984ZM565.98 511.551L584.063 542.914L565.98 574.276V511.551ZM565.98 584.118L584.063 615.481L565.98 646.844V584.118ZM882.075 684.474L900.175 653.082H936.375L923.351 660.612L882.075 684.474ZM1193.67 584.119L1211.75 615.481L1193.67 646.844V584.119ZM1193.67 511.551L1211.75 542.914L1193.67 574.276V511.551ZM1193.67 438.984L1211.75 470.346L1193.67 501.709V438.984ZM1193.67 366.416L1211.75 397.778L1193.67 429.141V366.416ZM1193.67 293.848L1211.75 325.211L1193.67 356.574V293.848ZM1193.67 221.281L1211.75 252.643L1193.67 284.006V221.281ZM1193.67 148.713L1211.75 180.076L1193.67 211.438V148.713ZM1193.67 76.1458L1211.75 107.508L1193.67 138.871V76.1458ZM1193.67 3.57795L1211.75 34.9407L1193.67 66.3033V3.57795ZM563.36 3.51806V66.3632L545.243 34.9407L563.36 3.51806ZM563.36 76.0859V138.931L545.243 107.508L563.36 76.0859ZM563.36 148.653V211.498L545.243 180.076L563.36 148.653ZM563.36 221.221V284.066L545.243 252.643L563.36 221.221ZM563.36 293.788V356.633L545.243 325.211L563.36 293.788ZM563.36 366.356V429.201L545.243 397.778L563.36 366.356ZM563.36 438.924V501.768L545.243 470.346L563.36 438.924ZM563.36 511.491V574.336L545.243 542.914L563.36 511.491ZM563.36 584.059V646.904L545.243 615.481L563.36 584.059ZM668.511 686.737H632.328L644.693 679.588L686.602 655.359L668.511 686.737ZM794.048 686.737H757.865L774.612 677.055L812.139 655.359L794.048 686.737ZM919.585 686.737H883.403L903.363 675.197L937.676 655.359L919.585 686.737ZM1045.12 686.737H1008.94L1023.26 678.456L1063.21 655.359L1045.12 686.737ZM1170.66 686.737H1134.48L1148.8 678.456L1188.75 655.359L1170.66 686.737Z" fill="white"/>
<rect opacity="0.5" y="-47" width="1128" height="758" fill="#ACD2FF"/>
</g>
<defs>
<clipPath id="clip0_6664_19961">
<rect width="1128" height="664" fill="white"/>
</clipPath>
</defs>
</svg>
